<?xml version="1.0" encoding="UTF-8" standalone="no"?>
<svg
   xmlns:dc="http://purl.org/dc/elements/1.1/"
   xmlns:cc="http://creativecommons.org/ns#"
   xmlns:rdf="http://www.w3.org/1999/02/22-rdf-syntax-ns#"
   xmlns:svg="http://www.w3.org/2000/svg"
   xmlns="http://www.w3.org/2000/svg"
   xmlns:sodipodi="http://sodipodi.sourceforge.net/DTD/sodipodi-0.dtd"
   xmlns:inkscape="http://www.inkscape.org/namespaces/inkscape"
   width="338.69611"
   height="341.03683"
   version="1.1"
   id="svg127"
   sodipodi:docname="logistic_multinominal.svg"
   inkscape:version="0.92.3 (2405546, 2018-03-11)"
   inkscape:export-filename="/home/edouard/git/pystatsml/deep_learning/figures/logistic_multinominal.png"
   inkscape:export-xdpi="267"
   inkscape:export-ydpi="267">
  <sodipodi:namedview
     pagecolor="#ffffff"
     bordercolor="#666666"
     borderopacity="1"
     objecttolerance="10"
     gridtolerance="10"
     guidetolerance="10"
     inkscape:pageopacity="0"
     inkscape:pageshadow="2"
     inkscape:window-width="1853"
     inkscape:window-height="1018"
     id="namedview129"
     showgrid="false"
     inkscape:zoom="0.8509083"
     inkscape:cx="59.88286"
     inkscape:cy="15.067953"
     inkscape:window-x="67"
     inkscape:window-y="34"
     inkscape:window-maximized="1"
     inkscape:current-layer="svg127"
     fit-margin-top="10"
     fit-margin-left="10"
     fit-margin-right="10"
     fit-margin-bottom="10" />
  <metadata
     id="metadata131">
    <rdf:RDF>
      <cc:Work
         rdf:about="">
        <dc:format>image/svg+xml</dc:format>
        <dc:type
           rdf:resource="http://purl.org/dc/dcmitype/StillImage" />
        <dc:title></dc:title>
      </cc:Work>
    </rdf:RDF>
  </metadata>
  <g
     id="g120"
     transform="matrix(0.90890412,0,0,0.90890412,-468.58653,-106.47478)">
    <path
       id="path4"
       style="stroke:#505050;stroke-width:0.5;stroke-opacity:1;marker-end:"
       d="m 553,163.5 194,54"
       class="link"
       inkscape:connector-curvature="0" />
    <path
       id="path6"
       style="stroke:#505050;stroke-width:0.5;stroke-opacity:1;marker-end:"
       d="M 553,217.5 H 747"
       class="link"
       inkscape:connector-curvature="0" />
    <path
       id="path8"
       style="stroke:#505050;stroke-width:0.5;stroke-opacity:1;marker-end:"
       d="m 553,271.5 194,-54"
       class="link"
       inkscape:connector-curvature="0" />
    <path
       id="path10"
       style="stroke:#505050;stroke-width:0.5;stroke-opacity:1;marker-end:"
       d="m 553,325.5 194,-108"
       class="link"
       inkscape:connector-curvature="0" />
    <path
       id="path12"
       style="stroke:#505050;stroke-width:0.5;stroke-opacity:1;marker-end:"
       d="m 553,379.5 194,-162"
       class="link"
       inkscape:connector-curvature="0" />
    <path
       id="path14"
       style="stroke:#505050;stroke-width:0.5;stroke-opacity:1;marker-end:"
       d="m 553,433.5 194,-216"
       class="link"
       inkscape:connector-curvature="0" />
    <path
       id="path20"
       style="stroke:#505050;stroke-width:0.5;stroke-opacity:1;marker-end:"
       d="m 553,163.5 194,108"
       class="link"
       inkscape:connector-curvature="0" />
    <path
       id="path22"
       style="stroke:#505050;stroke-width:0.5;stroke-opacity:1;marker-end:"
       d="m 553,217.5 194,54"
       class="link"
       inkscape:connector-curvature="0" />
    <path
       id="path24"
       style="stroke:#505050;stroke-width:0.5;stroke-opacity:1;marker-end:"
       d="M 553,271.5 H 747"
       class="link"
       inkscape:connector-curvature="0" />
    <path
       id="path26"
       style="stroke:#505050;stroke-width:0.5;stroke-opacity:1;marker-end:"
       d="m 553,325.5 194,-54"
       class="link"
       inkscape:connector-curvature="0" />
    <path
       id="path28"
       style="stroke:#505050;stroke-width:0.5;stroke-opacity:1;marker-end:"
       d="m 553,379.5 194,-108"
       class="link"
       inkscape:connector-curvature="0" />
    <path
       id="path30"
       style="stroke:#505050;stroke-width:0.5;stroke-opacity:1;marker-end:"
       d="m 553,433.5 194,-162"
       class="link"
       inkscape:connector-curvature="0" />
    <path
       id="path36"
       style="stroke:#505050;stroke-width:0.5;stroke-opacity:1;marker-end:"
       d="m 553,163.5 194,162"
       class="link"
       inkscape:connector-curvature="0" />
    <path
       id="path38"
       style="stroke:#505050;stroke-width:0.5;stroke-opacity:1;marker-end:"
       d="m 553,217.5 194,108"
       class="link"
       inkscape:connector-curvature="0" />
    <path
       id="path40"
       style="stroke:#505050;stroke-width:0.5;stroke-opacity:1;marker-end:"
       d="m 553,271.5 194,54"
       class="link"
       inkscape:connector-curvature="0" />
    <path
       id="path42"
       style="stroke:#505050;stroke-width:0.5;stroke-opacity:1;marker-end:"
       d="M 553,325.5 H 747"
       class="link"
       inkscape:connector-curvature="0" />
    <path
       id="path44"
       style="stroke:#505050;stroke-width:0.5;stroke-opacity:1;marker-end:"
       d="m 553,379.5 194,-54"
       class="link"
       inkscape:connector-curvature="0" />
    <path
       id="path46"
       style="stroke:#505050;stroke-width:0.5;stroke-opacity:1;marker-end:"
       d="m 553,433.5 194,-108"
       class="link"
       inkscape:connector-curvature="0" />
    <path
       id="path52"
       style="stroke:#505050;stroke-width:0.5;stroke-opacity:1;marker-end:"
       d="m 553,163.5 194,216"
       class="link"
       inkscape:connector-curvature="0" />
    <path
       id="path54"
       style="stroke:#505050;stroke-width:0.5;stroke-opacity:1;marker-end:"
       d="m 553,217.5 194,162"
       class="link"
       inkscape:connector-curvature="0" />
    <path
       id="path56"
       style="stroke:#505050;stroke-width:0.5;stroke-opacity:1;marker-end:"
       d="m 553,271.5 194,108"
       class="link"
       inkscape:connector-curvature="0" />
    <path
       id="path58"
       style="stroke:#505050;stroke-width:0.5;stroke-opacity:1;marker-end:"
       d="m 553,325.5 194,54"
       class="link"
       inkscape:connector-curvature="0" />
    <path
       id="path60"
       style="stroke:#505050;stroke-width:0.5;stroke-opacity:1;marker-end:"
       d="M 553,379.5 H 747"
       class="link"
       inkscape:connector-curvature="0" />
    <path
       id="path62"
       style="stroke:#505050;stroke-width:0.5;stroke-opacity:1;marker-end:"
       d="m 553,433.5 194,-54"
       class="link"
       inkscape:connector-curvature="0" />
    <path
       id="path66"
       style="stroke:#505050;stroke-width:0.37197036;stroke-opacity:1"
       d="M 747,217.5 H 854.36887"
       class="link"
       inkscape:connector-curvature="0" />
    <path
       id="path76"
       style="stroke:#505050;stroke-width:0.37197036;stroke-opacity:1"
       d="M 747,271.5 H 854.36887"
       class="link"
       inkscape:connector-curvature="0" />
    <path
       id="path86"
       style="stroke:#505050;stroke-width:0.37197036;stroke-opacity:1"
       d="M 747,325.5 H 854.36887"
       class="link"
       inkscape:connector-curvature="0" />
    <path
       id="path96"
       style="stroke:#505050;stroke-width:0.37197036;stroke-opacity:1"
       d="M 747,379.5 H 854.36887"
       class="link"
       inkscape:connector-curvature="0" />
    <circle
       style="fill:#ffffff;stroke:#333333"
       cy="163.5"
       cx="553"
       id="0_1"
       class="node"
       r="17" />
    <circle
       style="fill:#ffffff;stroke:#333333"
       cy="217.5"
       cx="553"
       id="0_2"
       class="node"
       r="17" />
    <circle
       style="fill:#ffffff;stroke:#333333"
       cy="271.5"
       cx="553"
       id="0_3"
       class="node"
       r="17" />
    <circle
       style="fill:#ffffff;stroke:#333333"
       cy="325.5"
       cx="553"
       id="0_4"
       class="node"
       r="17" />
    <circle
       style="fill:#ffffff;stroke:#333333"
       cy="379.5"
       cx="553"
       id="0_5"
       class="node"
       r="17" />
    <circle
       style="fill:#ffffff;stroke:#333333"
       cy="433.5"
       cx="553"
       id="0_6"
       class="node"
       r="17" />
    <circle
       style="fill:#ffffff;stroke:#333333"
       cy="217.5"
       cx="747"
       id="1_0"
       class="node"
       r="17" />
    <circle
       style="fill:#ffffff;stroke:#333333"
       cy="271.5"
       cx="747"
       id="1_1"
       class="node"
       r="17" />
    <circle
       style="fill:#ffffff;stroke:#333333"
       cy="325.5"
       cx="747"
       id="1_2"
       class="node"
       r="17" />
    <circle
       style="fill:#ffffff;stroke:#333333"
       cy="379.5"
       cx="747"
       id="1_3"
       class="node"
       r="17" />
    <g
       id="g1474"
       transform="translate(444.79266,-257.30738)">
      <g
         word-spacing="normal"
         letter-spacing="normal"
         font-size-adjust="none"
         font-stretch="normal"
         font-weight="normal"
         font-variant="normal"
         font-style="normal"
         stroke-miterlimit="10.433"
         xml:space="preserve"
         transform="matrix(0.90142857,0,0,-0.90142857,-157.75,1069.5)"
         id="content"
         style="font-style:normal;font-variant:normal;font-weight:normal;font-stretch:normal;letter-spacing:normal;word-spacing:normal;text-anchor:start;fill:none;fill-opacity:1;fill-rule:evenodd;stroke:#000000;stroke-linecap:butt;stroke-linejoin:miter;stroke-miterlimit:10.43299961;stroke-dasharray:none;stroke-dashoffset:0;stroke-opacity:1"><path
           id="path1469"
           d="m 472.16,421.25 0.03,0.13 0.04,0.15 0.04,0.16 0.04,0.18 0.06,0.19 0.06,0.21 0.06,0.22 0.07,0.22 0.08,0.23 0.09,0.24 0.1,0.25 0.1,0.24 0.11,0.25 0.12,0.25 0.13,0.25 0.14,0.25 0.15,0.24 0.15,0.24 0.17,0.23 0.18,0.22 0.18,0.22 0.2,0.2 0.21,0.19 0.22,0.18 0.23,0.16 0.25,0.14 0.12,0.07 0.13,0.06 0.14,0.05 0.13,0.05 0.14,0.05 0.14,0.04 0.15,0.03 0.15,0.03 0.15,0.02 0.16,0.02 0.16,0.01 h 0.16 c 0.25,0 1.44,0 2.48,-0.64 -1.39,-0.25 -2.39,-1.5 -2.39,-2.69 0,-0.79 0.55,-1.75 1.89,-1.75 1.1,0 2.69,0.89 2.69,2.89 0,2.6 -2.94,3.28 -4.63,3.28 -2.89,0 -4.64,-2.64 -5.23,-3.78 -1.25,3.28 -3.94,3.78 -5.37,3.78 -5.19,0 -8.04,-6.42 -8.04,-7.67 0,-0.5 0.5,-0.5 0.61,-0.5 0.39,0 0.55,0.11 0.64,0.55 1.69,5.28 4.99,6.53 6.68,6.53 0.95,0 2.68,-0.44 2.68,-3.33 0,-1.54 -0.84,-4.89 -2.68,-11.86 -0.8,-3.09 -2.54,-5.18 -4.74,-5.18 -0.3,0 -1.44,0 -2.48,0.65 1.25,0.24 2.34,1.28 2.34,2.69 0,1.34 -1.09,1.73 -1.84,1.73 -1.5,0 -2.75,-1.29 -2.75,-2.89 0,-2.28 2.5,-3.28 4.68,-3.28 3.3,0 5.08,3.49 5.24,3.78 0.59,-1.84 2.39,-3.78 5.37,-3.78 5.14,0 7.99,6.42 7.99,7.67 0,0.5 -0.45,0.5 -0.61,0.5 -0.44,0 -0.55,-0.2 -0.64,-0.54 -1.64,-5.33 -5.03,-6.53 -6.63,-6.53 -1.95,0 -2.75,1.59 -2.75,3.29 0,1.1 0.3,2.19 0.86,4.38 z"
           inkscape:connector-curvature="0"
           style="fill:#000000;stroke-width:0" /><path
           id="path1471"
           d="m 529.65,434.45 0.23,0.4 0.23,0.4 0.24,0.38 0.25,0.37 0.13,0.18 0.13,0.17 0.13,0.17 0.14,0.16 0.14,0.16 0.15,0.16 0.15,0.15 0.15,0.14 0.17,0.14 0.16,0.13 0.18,0.13 0.18,0.12 0.18,0.11 0.2,0.11 0.2,0.1 0.21,0.09 0.22,0.09 0.23,0.08 0.24,0.07 0.24,0.06 0.26,0.05 0.27,0.05 0.27,0.04 0.29,0.02 c 0.46,0.05 0.96,0.05 0.96,1 0,0.19 -0.21,0.55 -0.61,0.55 -1.19,0 -2.58,-0.16 -3.83,-0.16 -1.71,0 -3.55,0.16 -5.19,0.16 -0.3,0 -0.94,0 -0.94,-0.95 0,-0.55 0.44,-0.6 0.74,-0.6 1.2,-0.04 2.95,-0.45 2.95,-1.93 0,-0.55 -0.25,-0.96 -0.65,-1.66 l -13.46,-23.45 -1.84,24.7 c -0.05,1 -0.14,2.3 3.48,2.34 0.86,0 1.36,0 1.36,1 0,0.5 -0.56,0.55 -0.75,0.55 -2,0 -4.09,-0.16 -6.08,-0.16 -1.15,0 -4.09,0.16 -5.23,0.16 -0.3,0 -0.95,0 -0.95,-1 0,-0.55 0.5,-0.55 1.2,-0.55 2.19,0 2.53,-0.29 2.64,-1.25 l 0.3,-3.82 -12.61,-21.97 -1.89,25.25 c 0,0.59 0,1.75 3.78,1.79 0.5,0 1.04,0 1.04,1 0,0.55 -0.59,0.55 -0.68,0.55 -2,0 -4.1,-0.16 -6.13,-0.16 -1.75,0 -3.54,0.16 -5.23,0.16 -0.25,0 -0.91,0 -0.91,-0.95 0,-0.6 0.45,-0.6 1.25,-0.6 2.5,0 2.55,-0.45 2.64,-1.84 l 2.25,-30.44 c 0.05,-0.9 0.1,-1.29 0.8,-1.29 0.59,0 0.73,0.29 1.19,1.04 l 14.65,25.41 1.85,-25.16 c 0.09,-1.04 0.18,-1.29 0.79,-1.29 0.64,0 0.94,0.5 1.19,0.93 z"
           inkscape:connector-curvature="0"
           style="fill:#000000;stroke-width:0" /></g>    </g>
    <rect
       style="fill:#ffffff;fill-opacity:1;stroke:#000000;stroke-width:0.41583347;stroke-miterlimit:0.80000001;stroke-dasharray:none;stroke-dashoffset:0;stroke-opacity:1"
       id="rect1749"
       width="54.306084"
       height="228.86134"
       x="822.67712"
       y="184.15964" />
    <text
       xml:space="preserve"
       style="font-style:normal;font-variant:normal;font-weight:normal;font-stretch:normal;font-size:17.60361671px;line-height:1.25;font-family:Calibri;-inkscape-font-specification:Calibri;letter-spacing:0px;word-spacing:0px;fill:#000000;fill-opacity:1;stroke:none;stroke-width:1.10022604"
       x="-344.42462"
       y="854.14551"
       id="text1753"
       transform="rotate(-90)"><tspan
         sodipodi:role="line"
         id="tspan1751"
         x="-344.42462"
         y="854.14551"
         style="font-size:29.33936119px;stroke-width:1.10022604">Softmax</tspan></text>
    <text
       id="text1376"
       y="478.52515"
       x="525.11792"
       style="font-style:normal;font-variant:normal;font-weight:normal;font-stretch:normal;font-size:17.60361671px;line-height:1.25;font-family:Calibri;-inkscape-font-specification:Calibri;letter-spacing:0px;word-spacing:0px;fill:#000000;fill-opacity:1;stroke:none;stroke-width:1.10022604"
       xml:space="preserve"><tspan
         style="stroke-width:1.10022604"
         y="478.52515"
         x="525.11792"
         id="tspan1374"
         sodipodi:role="line">Input layer of size (0)</tspan></text>
    <text
       id="text1376-3"
       y="476.69431"
       x="693.37347"
       style="font-style:normal;font-variant:normal;font-weight:normal;font-stretch:normal;font-size:17.60361671px;line-height:1.25;font-family:Calibri;-inkscape-font-specification:Calibri;letter-spacing:0px;word-spacing:0px;fill:#000000;fill-opacity:1;stroke:none;stroke-width:1.10022604"
       xml:space="preserve"><tspan
         style="stroke-width:1.10022604"
         y="476.69431"
         x="693.37347"
         id="tspan1374-6"
         sodipodi:role="line">Output layer of size (1)</tspan></text>
  </g>
  <defs
     id="defs125">
    <marker
       refX="59.599998"
       orient="auto"
       markerHeight="7"
       markerWidth="7"
       viewBox="0 -5 10 10"
       id="arrow">
      <path
         id="path122"
         style="fill:none;stroke:#505050"
         d="M 0,-5 10,0 0,5"
         inkscape:connector-curvature="0" />
    </marker>
  </defs>
  <g
     transform="translate(-115.4825,-8.5823202)"
     id="g1252">
    <g
       style="font-style:normal;font-variant:normal;font-weight:normal;font-stretch:normal;letter-spacing:normal;word-spacing:normal;text-anchor:start;fill:none;fill-opacity:1;fill-rule:evenodd;stroke:#000000;stroke-linecap:butt;stroke-linejoin:miter;stroke-miterlimit:10.43299961;stroke-dasharray:none;stroke-dashoffset:0;stroke-opacity:1"
       id="g1250"
       transform="matrix(0.49170873,0,0,-0.49170873,-86.049027,352.19531)"
       xml:space="preserve"
       stroke-miterlimit="10.433"
       font-style="normal"
       font-variant="normal"
       font-weight="normal"
       font-stretch="normal"
       font-size-adjust="none"
       letter-spacing="normal"
       word-spacing="normal"><path
         style="fill:#000000;stroke-width:0"
         inkscape:connector-curvature="0"
         d="m 472.16,421.25 0.03,0.13 0.04,0.15 0.04,0.16 0.04,0.18 0.06,0.19 0.06,0.21 0.06,0.22 0.07,0.22 0.08,0.23 0.09,0.24 0.1,0.25 0.1,0.24 0.11,0.25 0.12,0.25 0.13,0.25 0.14,0.25 0.15,0.24 0.15,0.24 0.17,0.23 0.18,0.22 0.18,0.22 0.2,0.2 0.21,0.19 0.22,0.18 0.23,0.16 0.25,0.14 0.12,0.07 0.13,0.06 0.14,0.05 0.13,0.05 0.14,0.05 0.14,0.04 0.15,0.03 0.15,0.03 0.15,0.02 0.16,0.02 0.16,0.01 h 0.16 c 0.25,0 1.44,0 2.48,-0.64 -1.39,-0.25 -2.39,-1.5 -2.39,-2.69 0,-0.79 0.55,-1.75 1.89,-1.75 1.1,0 2.69,0.89 2.69,2.89 0,2.6 -2.94,3.28 -4.63,3.28 -2.89,0 -4.64,-2.64 -5.23,-3.78 -1.25,3.28 -3.94,3.78 -5.37,3.78 -5.19,0 -8.04,-6.42 -8.04,-7.67 0,-0.5 0.5,-0.5 0.61,-0.5 0.39,0 0.55,0.11 0.64,0.55 1.69,5.28 4.99,6.53 6.68,6.53 0.95,0 2.68,-0.44 2.68,-3.33 0,-1.54 -0.84,-4.89 -2.68,-11.86 -0.8,-3.09 -2.54,-5.18 -4.74,-5.18 -0.3,0 -1.44,0 -2.48,0.65 1.25,0.24 2.34,1.28 2.34,2.69 0,1.34 -1.09,1.73 -1.84,1.73 -1.5,0 -2.75,-1.29 -2.75,-2.89 0,-2.28 2.5,-3.28 4.68,-3.28 3.3,0 5.08,3.49 5.24,3.78 0.59,-1.84 2.39,-3.78 5.37,-3.78 5.14,0 7.99,6.42 7.99,7.67 0,0.5 -0.45,0.5 -0.61,0.5 -0.44,0 -0.55,-0.2 -0.64,-0.54 -1.64,-5.33 -5.03,-6.53 -6.63,-6.53 -1.95,0 -2.75,1.59 -2.75,3.29 0,1.1 0.3,2.19 0.86,4.38 z"
         id="path1244" /><path
         style="fill:#000000;stroke-width:0"
         inkscape:connector-curvature="0"
         d="m 495.26,420.54 v 0.05 l -0.01,0.06 v 0.05 l -0.01,0.06 -0.01,0.05 -0.02,0.06 -0.01,0.05 -0.02,0.06 -0.03,0.06 -0.02,0.05 -0.03,0.06 -0.03,0.05 -0.03,0.06 -0.04,0.05 -0.03,0.05 -0.05,0.05 -0.04,0.05 -0.05,0.05 -0.05,0.04 -0.05,0.05 -0.06,0.04 -0.06,0.03 -0.06,0.04 -0.06,0.03 -0.07,0.03 -0.07,0.03 -0.08,0.02 -0.08,0.02 -0.08,0.01 -0.08,0.01 -0.09,0.01 h -0.09 c -0.94,0 -1.95,-0.91 -1.95,-1.92 0,-0.59 0.45,-1.33 1.4,-1.33 1,0 1.96,0.99 1.96,1.92 z"
         id="path1246" /><path
         style="fill:#000000;stroke-width:0"
         inkscape:connector-curvature="0"
         d="m 488.15,402.84 -0.06,-0.17 -0.05,-0.17 -0.03,-0.08 -0.02,-0.09 -0.03,-0.08 -0.02,-0.09 -0.02,-0.09 -0.02,-0.09 -0.02,-0.1 -0.01,-0.09 -0.02,-0.1 v -0.05 l -0.01,-0.05 v -0.06 -0.05 -0.05 -0.06 c 0,-1.64 1.39,-2.95 3.29,-2.95 3.49,0 5.03,4.79 5.03,5.33 0,0.45 -0.45,0.45 -0.56,0.45 -0.48,0 -0.53,-0.2 -0.67,-0.59 -0.8,-2.79 -2.33,-4.22 -3.69,-4.22 -0.7,0 -0.87,0.45 -0.87,1.22 0,0.79 0.25,1.46 0.56,2.23 0.34,0.94 0.73,1.87 1.11,2.78 0.31,0.84 1.58,4.02 1.72,4.44 0.09,0.34 0.2,0.76 0.2,1.11 0,1.64 -1.39,2.95 -3.31,2.95 -3.45,0 -5.05,-4.73 -5.05,-5.33 0,-0.45 0.49,-0.45 0.6,-0.45 0.48,0 0.51,0.17 0.62,0.56 0.91,3 2.44,4.25 3.72,4.25 0.56,0 0.87,-0.28 0.87,-1.22 0,-0.79 -0.2,-1.32 -1.07,-3.48 z"
         id="path1248" /></g>  </g>
  <g
     transform="translate(-184.37859,-751.9804)"
     id="g1281">
    <g
       style="font-style:normal;font-variant:normal;font-weight:normal;font-stretch:normal;letter-spacing:normal;word-spacing:normal;text-anchor:start;fill:none;fill-opacity:1;fill-rule:evenodd;stroke:#000000;stroke-linecap:butt;stroke-linejoin:miter;stroke-miterlimit:10.43299961;stroke-dasharray:none;stroke-dashoffset:0;stroke-opacity:1"
       id="g1496"
       transform="matrix(0.90142857,0,0,-0.90142857,-174.20301,1158.8163)"
       xml:space="preserve"
       stroke-miterlimit="10.433"
       font-style="normal"
       font-variant="normal"
       font-weight="normal"
       font-stretch="normal"
       font-size-adjust="none"
       letter-spacing="normal"
       word-spacing="normal"><path
         style="fill:#000000;stroke-width:0"
         inkscape:connector-curvature="0"
         d="m 501.21,434.45 0.23,0.4 0.24,0.4 0.24,0.38 0.24,0.37 0.13,0.18 0.13,0.17 0.14,0.17 0.13,0.16 0.14,0.16 0.15,0.16 0.15,0.15 0.16,0.14 0.16,0.14 0.17,0.13 0.17,0.13 0.18,0.12 0.19,0.11 0.19,0.11 0.2,0.1 0.21,0.09 0.22,0.09 0.23,0.08 0.24,0.07 0.25,0.06 0.25,0.05 0.27,0.05 0.28,0.04 0.29,0.02 c 0.45,0.05 0.95,0.05 0.95,1 0,0.19 -0.2,0.55 -0.61,0.55 -1.19,0 -2.58,-0.16 -3.83,-0.16 -1.7,0 -3.55,0.16 -5.19,0.16 -0.29,0 -0.93,0 -0.93,-0.95 0,-0.55 0.43,-0.6 0.73,-0.6 1.2,-0.04 2.95,-0.45 2.95,-1.93 0,-0.55 -0.25,-0.96 -0.65,-1.66 l -13.46,-23.45 -1.84,24.7 c -0.05,1 -0.14,2.3 3.48,2.34 0.86,0 1.36,0 1.36,1 0,0.5 -0.56,0.55 -0.75,0.55 -2,0 -4.09,-0.16 -6.07,-0.16 -1.16,0 -4.1,0.16 -5.24,0.16 -0.3,0 -0.95,0 -0.95,-1 0,-0.55 0.5,-0.55 1.2,-0.55 2.19,0 2.53,-0.29 2.64,-1.25 l 0.3,-3.82 -12.61,-21.97 -1.89,25.25 c 0,0.59 0,1.75 3.78,1.79 0.5,0 1.05,0 1.05,1 0,0.55 -0.6,0.55 -0.69,0.55 -2,0 -4.09,-0.16 -6.13,-0.16 -1.75,0 -3.54,0.16 -5.23,0.16 -0.25,0 -0.91,0 -0.91,-0.95 0,-0.6 0.46,-0.6 1.25,-0.6 2.5,0 2.55,-0.45 2.64,-1.84 l 2.25,-30.44 c 0.05,-0.9 0.1,-1.29 0.8,-1.29 0.6,0 0.74,0.29 1.19,1.04 l 14.66,25.41 1.84,-25.16 c 0.09,-1.04 0.19,-1.29 0.8,-1.29 0.64,0 0.93,0.5 1.18,0.93 z"
         id="path1264" /><path
         style="fill:#000000;stroke-width:0"
         inkscape:connector-curvature="0"
         d="m 514.93,423.34 -0.6,-0.45 -0.58,-0.46 -0.55,-0.47 -0.53,-0.49 -0.5,-0.5 -0.47,-0.51 -0.45,-0.53 -0.42,-0.53 -0.4,-0.54 -0.37,-0.55 -0.36,-0.56 -0.33,-0.56 -0.31,-0.57 -0.28,-0.57 -0.27,-0.58 -0.25,-0.58 -0.23,-0.58 -0.2,-0.58 -0.2,-0.59 -0.17,-0.58 -0.15,-0.58 -0.14,-0.58 -0.13,-0.57 -0.1,-0.57 -0.1,-0.57 -0.08,-0.56 -0.06,-0.55 -0.05,-0.55 -0.04,-0.53 -0.03,-0.53 -0.02,-0.52 v -0.5 c 0,-4.92 1.47,-12.55 8.37,-17.42 0.29,0 0.69,0 0.69,0.4 0,0.22 -0.09,0.28 -0.34,0.53 -4.64,4.19 -6.35,10.11 -6.35,16.46 0,9.4 3.6,14 6.46,16.58 0.14,0.14 0.23,0.25 0.23,0.42 0,0.42 -0.4,0.42 -0.69,0.42 z"
         id="path1266" /><path
         style="fill:#000000;stroke-width:0"
         inkscape:connector-curvature="0"
         d="m 536.14,408.31 v 0.71 l -0.02,0.68 -0.03,0.66 -0.04,0.64 -0.06,0.62 -0.08,0.59 -0.09,0.58 -0.11,0.56 -0.12,0.55 -0.15,0.52 -0.17,0.52 -0.19,0.5 -0.21,0.49 -0.24,0.48 -0.26,0.47 -0.14,0.23 -0.15,0.23 c -1.08,1.61 -3.24,3 -6.03,3 -8.08,0 -8.08,-9.52 -8.08,-12.03 0,-2.5 0,-11.81 8.08,-11.81 v 0.98 c -1.6,0 -3.72,0.94 -4.43,3.8 -0.48,2.04 -0.48,4.9 -0.48,7.48 0,2.55 0,5.2 0.52,7.11 0.73,2.75 2.96,3.49 4.39,3.49 1.89,0 3.7,-1.15 4.33,-3.18 0.56,-1.87 0.59,-4.39 0.59,-7.42 0,-2.58 0,-5.15 -0.45,-7.34 -0.71,-3.17 -3.07,-3.94 -4.47,-3.94 v 0 -0.98 c 8.09,0 8.09,9.31 8.09,11.81 z"
         id="path1268" /><path
         style="fill:#000000;stroke-width:0"
         inkscape:connector-curvature="0"
         d="m 541.09,423.34 h -0.02 -0.02 -0.03 -0.03 -0.02 -0.03 -0.03 l -0.03,-0.01 h -0.02 -0.03 l -0.03,-0.01 h -0.03 l -0.03,-0.01 -0.02,-0.01 h -0.03 l -0.03,-0.01 -0.02,-0.01 -0.03,-0.02 -0.02,-0.01 -0.02,-0.01 -0.02,-0.02 -0.02,-0.02 -0.02,-0.02 -0.01,-0.01 -0.01,-0.01 -0.01,-0.01 v -0.01 l -0.01,-0.01 -0.01,-0.02 v -0.01 l -0.01,-0.01 v -0.02 l -0.01,-0.01 v -0.02 l -0.01,-0.01 v -0.02 -0.02 l -0.01,-0.02 v -0.01 -0.02 -0.02 c 0,-0.17 0.11,-0.28 0.31,-0.53 3,-2.75 6.35,-7.46 6.35,-16.44 0,-7.28 -2.27,-12.8 -6.03,-16.2 -0.58,-0.6 -0.63,-0.63 -0.63,-0.82 0,-0.17 0.11,-0.4 0.46,-0.4 0.42,0 3.73,2.29 6.03,6.65 1.53,2.89 2.54,6.66 2.54,10.74 0,4.9 -1.47,12.53 -8.36,17.42 z"
         id="path1270" /><path
         style="fill:#000000;stroke-width:0"
         inkscape:connector-curvature="0"
         d="m 577.94,413.54 0.04,0.04 0.03,0.03 0.03,0.03 0.03,0.04 0.03,0.03 0.03,0.03 0.03,0.03 0.02,0.03 0.02,0.03 0.03,0.02 0.02,0.03 0.02,0.03 0.01,0.02 0.02,0.03 0.02,0.03 0.01,0.02 0.01,0.02 0.02,0.03 0.01,0.02 0.01,0.03 v 0.02 l 0.01,0.02 0.01,0.02 0.01,0.03 v 0.02 0.02 l 0.01,0.02 v 0.02 0.05 l 0.01,0.04 c 0,0.56 -0.46,0.88 -0.83,0.88 -0.36,0 -0.45,-0.11 -0.88,-0.52 l -7.62,-7.59 -7.67,7.62 c -0.35,0.35 -0.49,0.49 -0.8,0.49 -0.5,0 -0.88,-0.38 -0.88,-0.88 0,-0.31 0.11,-0.41 0.52,-0.83 l 7.61,-7.59 -7.61,-7.59 c -0.49,-0.5 -0.52,-0.68 -0.52,-0.88 0,-0.48 0.38,-0.87 0.88,-0.87 0.31,0 0.4,0.1 0.8,0.48 l 7.67,7.64 7.93,-7.95 c 0.18,-0.1 0.35,-0.17 0.57,-0.17 0.37,0 0.83,0.31 0.83,0.87 0,0.28 -0.07,0.34 -0.18,0.45 -0.06,0.14 -6.82,6.89 -7.93,7.99 z"
         id="path1272" /><path
         style="fill:#000000;stroke-width:0"
         inkscape:connector-curvature="0"
         d="m 597,423.34 -0.6,-0.45 -0.58,-0.46 -0.55,-0.47 -0.53,-0.49 -0.5,-0.5 -0.47,-0.51 -0.45,-0.53 -0.42,-0.53 -0.4,-0.54 -0.37,-0.55 -0.36,-0.56 -0.33,-0.56 -0.31,-0.57 -0.28,-0.57 -0.27,-0.58 -0.25,-0.58 -0.23,-0.58 -0.2,-0.58 -0.19,-0.59 -0.18,-0.58 -0.15,-0.58 -0.14,-0.58 -0.13,-0.57 -0.1,-0.57 -0.1,-0.57 -0.08,-0.56 -0.06,-0.55 -0.05,-0.55 -0.04,-0.53 -0.03,-0.53 -0.02,-0.52 v -0.5 c 0,-4.92 1.47,-12.55 8.37,-17.42 0.28,0 0.69,0 0.69,0.4 0,0.22 -0.09,0.28 -0.34,0.53 -4.64,4.19 -6.35,10.11 -6.35,16.46 0,9.4 3.6,14 6.46,16.58 0.14,0.14 0.23,0.25 0.23,0.42 0,0.42 -0.41,0.42 -0.69,0.42 z"
         id="path1274" /><path
         style="fill:#000000;stroke-width:0"
         inkscape:connector-curvature="0"
         d="m 611.9,419.36 v 0.04 0.04 0.04 0.04 0.04 0.04 l -0.01,0.04 v 0.03 0.04 0.03 0.03 0.03 l -0.01,0.03 v 0.03 0.03 l -0.01,0.02 v 0.03 l -0.01,0.02 v 0.02 l -0.01,0.03 -0.01,0.04 -0.01,0.04 -0.02,0.03 -0.02,0.03 -0.02,0.03 -0.03,0.03 -0.02,0.02 -0.03,0.02 -0.04,0.01 -0.03,0.02 -0.05,0.01 -0.04,0.01 -0.02,0.01 h -0.03 l -0.02,0.01 h -0.03 -0.03 l -0.03,0.01 h -0.03 -0.03 -0.03 -0.03 l -0.04,0.01 h -0.03 -0.04 -0.03 -0.04 -0.04 -0.05 -0.04 -0.04 -0.05 c -2.23,-2.2 -5.39,-2.23 -6.83,-2.23 v -1.25 c 0.85,0 3.14,0 5.05,0.96 v -17.76 c 0,-1.16 0,-1.61 -3.48,-1.61 h -1.32 v -1.25 c 0.63,0.03 4.91,0.14 6.21,0.14 1.07,0 5.47,-0.11 6.23,-0.14 v 1.25 h -1.33 c -3.48,0 -3.48,0.45 -3.48,1.61 z"
         id="path1276" /><path
         style="fill:#000000;stroke-width:0"
         inkscape:connector-curvature="0"
         d="m 623.16,423.34 h -0.02 -0.02 -0.03 -0.03 -0.02 -0.03 -0.03 l -0.03,-0.01 h -0.02 -0.03 l -0.03,-0.01 h -0.03 l -0.03,-0.01 -0.02,-0.01 h -0.03 l -0.03,-0.01 -0.02,-0.01 -0.03,-0.02 -0.02,-0.01 -0.02,-0.01 -0.02,-0.02 -0.02,-0.02 -0.02,-0.02 -0.01,-0.01 -0.01,-0.01 -0.01,-0.01 v -0.01 l -0.01,-0.01 -0.01,-0.02 v -0.01 l -0.01,-0.01 v -0.02 l -0.01,-0.01 v -0.02 l -0.01,-0.01 v -0.02 -0.02 l -0.01,-0.02 v -0.01 -0.02 -0.02 c 0,-0.17 0.11,-0.28 0.31,-0.53 3,-2.75 6.35,-7.46 6.35,-16.44 0,-7.28 -2.27,-12.8 -6.03,-16.2 -0.58,-0.6 -0.63,-0.63 -0.63,-0.82 0,-0.17 0.11,-0.4 0.46,-0.4 0.42,0 3.73,2.29 6.03,6.65 1.53,2.89 2.54,6.66 2.54,10.74 0,4.9 -1.47,12.53 -8.36,17.42 z"
         id="path1278" /></g>  </g>
</svg>
