<?xml version="1.0" encoding="UTF-8" standalone="no"?>
<svg
   xmlns:dc="http://purl.org/dc/elements/1.1/"
   xmlns:cc="http://creativecommons.org/ns#"
   xmlns:rdf="http://www.w3.org/1999/02/22-rdf-syntax-ns#"
   xmlns:svg="http://www.w3.org/2000/svg"
   xmlns="http://www.w3.org/2000/svg"
   xmlns:sodipodi="http://sodipodi.sourceforge.net/DTD/sodipodi-0.dtd"
   xmlns:inkscape="http://www.inkscape.org/namespaces/inkscape"
   width="312.74884"
   height="252.83925"
   version="1.1"
   id="svg43"
   sodipodi:docname="logistic.svg"
   inkscape:version="0.92.3 (2405546, 2018-03-11)"
   inkscape:export-filename="/home/edouard/git/pystatsml/deep_learning/figures/logistic.png"
   inkscape:export-xdpi="267"
   inkscape:export-ydpi="267">
  <sodipodi:namedview
     pagecolor="#ffffff"
     bordercolor="#666666"
     borderopacity="1"
     objecttolerance="10"
     gridtolerance="10"
     guidetolerance="10"
     inkscape:pageopacity="0"
     inkscape:pageshadow="2"
     inkscape:window-width="1853"
     inkscape:window-height="1018"
     id="namedview45"
     showgrid="false"
     inkscape:zoom="2.4067321"
     inkscape:cx="88.649147"
     inkscape:cy="121.6061"
     inkscape:window-x="67"
     inkscape:window-y="34"
     inkscape:window-maximized="1"
     inkscape:current-layer="g36"
     fit-margin-top="10"
     fit-margin-left="10"
     fit-margin-right="10"
     fit-margin-bottom="10" />
  <metadata
     id="metadata47">
    <rdf:RDF>
      <cc:Work
         rdf:about="">
        <dc:format>image/svg+xml</dc:format>
        <dc:type
           rdf:resource="http://purl.org/dc/dcmitype/StillImage" />
        <dc:title></dc:title>
      </cc:Work>
    </rdf:RDF>
  </metadata>
  <g
     transform="translate(-525.5,-200.05172)"
     id="g36">
    <path
       inkscape:connector-curvature="0"
       id="path6"
       style="stroke:#505050;stroke-width:0.5;stroke-opacity:1"
       d="m 553,245.5 180,60"
       class="link" />
    <path
       inkscape:connector-curvature="0"
       id="path8"
       style="stroke:#505050;stroke-width:0.5;stroke-opacity:1"
       d="m 553,285.5 180,20"
       class="link" />
    <path
       inkscape:connector-curvature="0"
       id="path10"
       style="stroke:#505050;stroke-width:0.5;stroke-opacity:1"
       d="m 553,325.5 180,-20"
       class="link" />
    <path
       inkscape:connector-curvature="0"
       id="path12"
       style="stroke:#505050;stroke-width:0.5;stroke-opacity:1"
       d="m 553,365.5 180,-60"
       class="link" />
    <circle
       style="fill:#ffffff;stroke:#333333"
       cy="245.5"
       cx="553"
       id="0_2"
       class="node"
       r="17" />
    <circle
       style="fill:#ffffff;stroke:#333333"
       cy="285.5"
       cx="553"
       id="0_3"
       class="node"
       r="17" />
    <circle
       style="fill:#ffffff;stroke:#333333"
       cy="325.5"
       cx="553"
       id="0_4"
       class="node"
       r="17" />
    <circle
       style="fill:#ffffff;stroke:#333333"
       cy="365.5"
       cx="553"
       id="0_5"
       class="node"
       r="17" />
    <circle
       style="fill:#ffffff;stroke:#333333"
       cy="305.5"
       cx="733"
       id="1_0"
       class="node"
       r="17" />
    <text
       id="text1376"
       y="440.31284"
       x="534.73468"
       style="font-style:normal;font-variant:normal;font-weight:normal;font-stretch:normal;font-size:16px;line-height:1.25;font-family:Calibri;-inkscape-font-specification:Calibri;letter-spacing:0px;word-spacing:0px;fill:#000000;fill-opacity:1;stroke:none;stroke-width:1"
       xml:space="preserve"><tspan
         style="stroke-width:1"
         y="440.31284"
         x="534.73468"
         id="tspan1374"
         sodipodi:role="line">Input layer of size (0)</tspan></text>
    <text
       id="text1376-3"
       y="438.64877"
       x="681.6629"
       style="font-style:normal;font-variant:normal;font-weight:normal;font-stretch:normal;font-size:16px;line-height:1.25;font-family:Calibri;-inkscape-font-specification:Calibri;letter-spacing:0px;word-spacing:0px;fill:#000000;fill-opacity:1;stroke:none;stroke-width:1"
       xml:space="preserve"><tspan
         style="stroke-width:1"
         y="438.64877"
         x="681.6629"
         id="tspan1374-6"
         sodipodi:role="line">Output layer of size (1)</tspan></text>
    <g
       transform="translate(657.32285,191.13053)"
       id="g1787">
      <g
         style="font-style:normal;font-variant:normal;font-weight:normal;font-stretch:normal;letter-spacing:normal;word-spacing:normal;text-anchor:start;fill:none;fill-opacity:1;fill-rule:evenodd;stroke:#000000;stroke-linecap:butt;stroke-linejoin:miter;stroke-miterlimit:10.43299961;stroke-dasharray:none;stroke-dashoffset:0;stroke-opacity:1"
         id="g1785"
         transform="matrix(0.39270137,0,0,-0.39270137,-68.72274,245.25)"
         xml:space="preserve"
         stroke-miterlimit="10.433"
         font-style="normal"
         font-variant="normal"
         font-weight="normal"
         font-stretch="normal"
         font-size-adjust="none"
         letter-spacing="normal"
         word-spacing="normal"><path
           style="fill:#000000;stroke-width:0"
           inkscape:connector-curvature="0"
           d="m 481.33,424.78 h 0.07 0.07 0.07 0.08 0.09 l 0.09,0.01 h 0.09 l 0.09,0.01 0.1,0.01 0.1,0.02 0.1,0.02 0.11,0.02 0.1,0.02 0.1,0.03 0.1,0.03 0.1,0.04 0.1,0.04 0.1,0.05 0.09,0.05 0.09,0.06 0.08,0.07 0.08,0.07 0.04,0.04 0.04,0.04 0.03,0.04 0.04,0.05 0.03,0.04 0.03,0.05 0.03,0.05 0.03,0.05 0.03,0.05 0.02,0.06 0.02,0.06 0.02,0.06 0.02,0.06 0.02,0.06 0.01,0.07 0.01,0.07 0.01,0.07 v 0.08 l 0.01,0.07 v 0.08 c 0,1.19 -1.05,1.19 -1.94,1.19 h -11.36 c -7.53,0 -13.06,-8.22 -13.06,-14.14 0,-4.39 2.94,-7.88 7.47,-7.88 l 0.06,1.1 c -2.45,0 -4.44,1.79 -4.44,5.37 0,1.5 0.6,5.59 2.35,8.53 2.09,3.44 5.08,4.13 6.76,4.13 4.19,0 4.6,-3.28 4.6,-4.83 0,-2.34 -1,-6.42 -2.69,-8.97 -1.95,-2.94 -4.64,-4.23 -6.58,-4.23 v 0 l -0.06,-1.1 c 5.89,0 12.51,6.03 12.51,13.71 0,0.84 0,3.23 -1.54,5.42 z"
           id="path1773" /><path
           style="fill:#000000;stroke-width:0"
           inkscape:connector-curvature="0"
           d="m 502.24,394.25 v 0.02 0.03 0.01 0.02 l -0.01,0.01 v 0.02 l -0.01,0.01 v 0.02 l -0.01,0.02 -0.01,0.02 -0.01,0.02 -0.02,0.03 -0.01,0.02 -0.02,0.03 -0.02,0.03 -0.03,0.03 -0.02,0.03 -0.03,0.04 -0.02,0.02 -0.02,0.02 -0.01,0.02 -0.02,0.02 -0.02,0.02 -0.02,0.03 -0.02,0.02 -0.02,0.02 -0.03,0.03 -0.02,0.02 -0.03,0.03 -0.02,0.03 -0.03,0.03 -0.02,0.03 -0.03,0.03 -0.03,0.03 -0.03,0.03 -0.04,0.03 -0.03,0.04 -0.03,0.03 -0.04,0.04 -0.04,0.03 -0.03,0.04 -0.04,0.04 c -6.22,6.28 -7.81,15.69 -7.81,23.31 0,8.67 1.89,17.35 8.01,23.56 0.64,0.61 0.64,0.71 0.64,0.86 0,0.35 -0.19,0.49 -0.48,0.49 -0.5,0 -4.99,-3.38 -7.92,-9.7 -2.55,-5.49 -3.14,-11.02 -3.14,-15.21 0,-3.89 0.54,-9.9 3.28,-15.54 2.98,-6.13 7.28,-9.36 7.78,-9.36 0.29,0 0.48,0.14 0.48,0.5 z"
           id="path1775" /><path
           style="fill:#000000;stroke-width:0"
           inkscape:connector-curvature="0"
           d="m 521.72,421.25 0.03,0.13 0.03,0.15 0.04,0.16 0.05,0.18 0.05,0.19 0.06,0.21 0.07,0.22 0.07,0.22 0.08,0.23 0.09,0.24 0.09,0.25 0.1,0.24 0.12,0.25 0.12,0.25 0.12,0.25 0.14,0.25 0.15,0.24 0.16,0.24 0.16,0.23 0.18,0.22 0.19,0.22 0.2,0.2 0.21,0.19 0.22,0.18 0.23,0.16 0.24,0.14 0.13,0.07 0.13,0.06 0.13,0.05 0.14,0.05 0.14,0.05 0.14,0.04 0.14,0.03 0.15,0.03 0.16,0.02 0.15,0.02 0.16,0.01 h 0.16 c 0.25,0 1.44,0 2.49,-0.64 -1.39,-0.25 -2.39,-1.5 -2.39,-2.69 0,-0.79 0.54,-1.75 1.89,-1.75 1.09,0 2.68,0.89 2.68,2.89 0,2.6 -2.93,3.28 -4.62,3.28 -2.89,0 -4.64,-2.64 -5.23,-3.78 -1.25,3.28 -3.94,3.78 -5.38,3.78 -5.19,0 -8.03,-6.42 -8.03,-7.67 0,-0.5 0.5,-0.5 0.61,-0.5 0.39,0 0.54,0.11 0.64,0.55 1.69,5.28 4.98,6.53 6.67,6.53 0.95,0 2.69,-0.44 2.69,-3.33 0,-1.54 -0.85,-4.89 -2.69,-11.86 -0.8,-3.09 -2.53,-5.18 -4.73,-5.18 -0.3,0 -1.44,0 -2.49,0.65 1.25,0.24 2.35,1.28 2.35,2.69 0,1.34 -1.1,1.73 -1.85,1.73 -1.5,0 -2.75,-1.29 -2.75,-2.89 0,-2.28 2.5,-3.28 4.69,-3.28 3.3,0 5.08,3.49 5.23,3.78 0.6,-1.84 2.39,-3.78 5.38,-3.78 5.14,0 7.98,6.42 7.98,7.67 0,0.5 -0.45,0.5 -0.61,0.5 -0.43,0 -0.54,-0.2 -0.64,-0.54 -1.64,-5.33 -5.03,-6.53 -6.62,-6.53 -1.95,0 -2.75,1.59 -2.75,3.29 0,1.1 0.3,2.19 0.86,4.38 z"
           id="path1777" /><path
           style="fill:#000000;stroke-width:0"
           inkscape:connector-curvature="0"
           d="m 550.46,445.28 0.01,0.04 0.01,0.05 0.01,0.04 0.01,0.05 0.01,0.04 0.01,0.04 0.01,0.04 0.01,0.04 0.02,0.07 0.02,0.07 0.02,0.06 0.02,0.06 0.02,0.06 0.02,0.05 0.02,0.05 0.02,0.04 0.02,0.04 0.03,0.04 0.02,0.04 0.03,0.03 0.02,0.03 0.03,0.02 0.04,0.03 0.03,0.02 0.04,0.02 0.03,0.02 0.04,0.01 0.05,0.02 0.04,0.01 0.05,0.01 0.05,0.01 0.06,0.01 0.06,0.01 h 0.06 l 0.07,0.01 h 0.06 c 0.18,0.04 1.4,0.04 2.1,0.04 2.12,0 3.03,0 3.89,-0.29 1.58,-0.48 1.64,-1.5 1.64,-2.75 0,-0.54 0,-1 -0.23,-2.81 l -0.08,-0.39 c 0,-0.34 0.25,-0.51 0.59,-0.51 0.53,0 0.59,0.31 0.67,0.86 l 0.94,6.65 c 0,0.5 -0.42,0.5 -1.05,0.5 h -21.43 c -0.86,0 -0.94,0 -1.17,-0.73 l -2.21,-6.17 c -0.03,-0.15 -0.17,-0.46 -0.17,-0.63 0,-0.14 0.06,-0.48 0.59,-0.48 0.46,0 0.52,0.17 0.74,0.82 2.01,5.58 3.17,5.93 8.47,5.93 h 1.45 c 1.05,0 1.08,-0.04 1.08,-0.35 0,-0.03 0,-0.2 -0.14,-0.73 l -4.6,-18.33 c -0.31,-1.28 -0.42,-1.64 -4.08,-1.64 -1.25,0 -1.56,0 -1.56,-0.77 0,-0.09 0.06,-0.48 0.6,-0.48 0.96,0 2.01,0.11 2.98,0.11 0.98,0 2.03,0.03 3,0.03 0.98,0 2.17,0 3.14,-0.03 0.94,-0.05 1.99,-0.11 2.92,-0.11 0.29,0 0.82,0 0.82,0.76 0,0.49 -0.36,0.49 -1.44,0.49 -0.66,0 -1.36,0.05 -2.02,0.08 -1.19,0.09 -1.25,0.23 -1.25,0.65 0,0.25 0,0.32 0.13,0.8 z"
           id="path1779" /><path
           style="fill:#000000;stroke-width:0"
           inkscape:connector-curvature="0"
           d="m 588.09,423.09 0.03,0.1 0.02,0.11 0.03,0.12 0.03,0.11 0.03,0.12 0.03,0.12 0.06,0.25 0.06,0.25 0.06,0.25 0.06,0.24 0.06,0.25 0.03,0.11 0.03,0.12 0.03,0.11 0.02,0.11 0.03,0.1 0.02,0.1 0.02,0.1 0.02,0.09 0.02,0.08 0.02,0.08 0.01,0.07 0.01,0.06 0.01,0.06 0.01,0.05 v 0.04 0.03 c 0,0.91 -0.7,1.35 -1.45,1.35 -0.59,0 -1.48,-0.39 -1.83,-1.39 -0.15,-0.35 -2.5,-9.86 -2.84,-11.16 -0.36,-1.5 -0.45,-2.39 -0.45,-3.3 0,-0.54 0,-0.64 0.04,-0.89 -1.14,-2.64 -2.64,-4.18 -4.58,-4.18 -3.98,0 -3.98,3.68 -3.98,4.53 0,1.59 0.25,3.54 2.59,9.67 0.55,1.48 0.85,2.19 0.85,3.19 0,2.23 -1.64,4.07 -4.1,4.07 -4.73,0 -6.57,-7.21 -6.57,-7.67 0,-0.5 0.5,-0.5 0.6,-0.5 0.5,0 0.55,0.11 0.8,0.91 1.35,4.62 3.28,6.17 5.03,6.17 0.44,0 1.25,-0.05 1.25,-1.64 0,-1.25 -0.56,-2.64 -0.9,-3.48 -2.19,-5.88 -2.78,-8.18 -2.78,-10.07 0,-4.53 3.32,-6.28 7.06,-6.28 0.86,0 3.19,0 5.19,3.49 1.29,-3.19 4.73,-3.49 6.23,-3.49 3.73,0 5.92,3.14 7.22,6.13 1.69,3.89 3.28,10.56 3.28,12.95 0,2.75 -1.34,3.48 -2.19,3.48 -1.25,0 -2.48,-1.29 -2.48,-2.39 0,-0.64 0.29,-0.93 0.73,-1.34 0.55,-0.55 1.8,-1.84 1.8,-4.23 0,-1.69 -1.44,-6.58 -2.74,-9.11 -1.29,-2.64 -3.04,-4.39 -5.48,-4.39 -2.34,0 -3.69,1.5 -3.69,4.32 0,1.41 0.35,2.96 0.55,3.64 z"
           id="path1781" /><path
           style="fill:#000000;stroke-width:0"
           inkscape:connector-curvature="0"
           d="m 616.43,418.65 -0.01,0.37 v 0.39 l -0.01,0.39 -0.01,0.41 -0.04,0.84 -0.06,0.88 -0.08,0.92 -0.11,0.95 -0.14,0.97 -0.16,1.01 -0.2,1.02 -0.23,1.03 -0.26,1.05 -0.31,1.06 -0.35,1.07 -0.39,1.07 -0.21,0.53 -0.23,0.53 -0.24,0.53 -0.24,0.53 c -2.99,6.12 -7.27,9.36 -7.77,9.36 -0.3,0 -0.5,-0.19 -0.5,-0.49 0,-0.15 0,-0.25 0.94,-1.15 4.89,-4.92 7.73,-12.85 7.73,-23.27 0,-8.51 -1.84,-17.28 -8.03,-23.56 -0.64,-0.59 -0.64,-0.7 -0.64,-0.84 0,-0.3 0.2,-0.5 0.5,-0.5 0.5,0 4.97,3.39 7.92,9.71 2.53,5.47 3.13,11 3.13,15.19 z"
           id="path1783" /></g>    </g>
    <g
       id="g1866"
       transform="translate(516.88345,172.01748)">
      <g
         word-spacing="normal"
         letter-spacing="normal"
         font-size-adjust="none"
         font-stretch="normal"
         font-weight="normal"
         font-variant="normal"
         font-style="normal"
         stroke-miterlimit="10.433"
         xml:space="preserve"
         transform="matrix(0.39270137,0,0,-0.39270137,-68.72274,245.25)"
         id="g1864"
         style="font-style:normal;font-variant:normal;font-weight:normal;font-stretch:normal;letter-spacing:normal;word-spacing:normal;text-anchor:start;fill:none;fill-opacity:1;fill-rule:evenodd;stroke:#000000;stroke-linecap:butt;stroke-linejoin:miter;stroke-miterlimit:10.43299961;stroke-dasharray:none;stroke-dashoffset:0;stroke-opacity:1"><path
           id="path1862"
           d="m 478.54,423.09 0.02,0.1 0.02,0.11 0.03,0.12 0.03,0.11 0.03,0.12 0.03,0.12 0.06,0.25 0.06,0.25 0.06,0.25 0.06,0.24 0.06,0.25 0.03,0.11 0.03,0.12 0.03,0.11 0.02,0.11 0.03,0.1 0.02,0.1 0.02,0.1 0.02,0.09 0.02,0.08 0.02,0.08 0.01,0.07 0.01,0.06 0.01,0.06 0.01,0.05 v 0.04 l 0.01,0.03 c 0,0.91 -0.71,1.35 -1.46,1.35 -0.59,0 -1.48,-0.39 -1.83,-1.39 -0.15,-0.35 -2.5,-9.86 -2.84,-11.16 -0.36,-1.5 -0.45,-2.39 -0.45,-3.3 0,-0.54 0,-0.64 0.04,-0.89 -1.14,-2.64 -2.64,-4.18 -4.57,-4.18 -3.99,0 -3.99,3.68 -3.99,4.53 0,1.59 0.25,3.54 2.6,9.67 0.54,1.48 0.84,2.19 0.84,3.19 0,2.23 -1.64,4.07 -4.09,4.07 -4.74,0 -6.58,-7.21 -6.58,-7.67 0,-0.5 0.5,-0.5 0.61,-0.5 0.5,0 0.54,0.11 0.79,0.91 1.35,4.62 3.28,6.17 5.03,6.17 0.44,0 1.25,-0.05 1.25,-1.64 0,-1.25 -0.56,-2.64 -0.9,-3.48 -2.19,-5.88 -2.78,-8.18 -2.78,-10.07 0,-4.53 3.33,-6.28 7.06,-6.28 0.86,0 3.19,0 5.19,3.49 1.29,-3.19 4.73,-3.49 6.23,-3.49 3.74,0 5.92,3.14 7.22,6.13 1.69,3.89 3.28,10.56 3.28,12.95 0,2.75 -1.34,3.48 -2.19,3.48 -1.25,0 -2.48,-1.29 -2.48,-2.39 0,-0.64 0.3,-0.93 0.73,-1.34 0.55,-0.55 1.8,-1.84 1.8,-4.23 0,-1.69 -1.44,-6.58 -2.73,-9.11 -1.3,-2.64 -3.05,-4.39 -5.49,-4.39 -2.34,0 -3.69,1.5 -3.69,4.32 0,1.41 0.35,2.96 0.55,3.64 z"
           inkscape:connector-curvature="0"
           style="fill:#000000;stroke-width:0" /></g>    </g>
    <g
       transform="translate(437.93823,132.96037)"
       id="g1944">
      <g
         style="font-style:normal;font-variant:normal;font-weight:normal;font-stretch:normal;letter-spacing:normal;word-spacing:normal;text-anchor:start;fill:none;fill-opacity:1;fill-rule:evenodd;stroke:#000000;stroke-linecap:butt;stroke-linejoin:miter;stroke-miterlimit:10.43299961;stroke-dasharray:none;stroke-dashoffset:0;stroke-opacity:1"
         id="g1942"
         transform="matrix(0.39270137,0,0,-0.39270137,-68.72274,245.25)"
         xml:space="preserve"
         stroke-miterlimit="10.433"
         font-style="normal"
         font-variant="normal"
         font-weight="normal"
         font-stretch="normal"
         font-size-adjust="none"
         letter-spacing="normal"
         word-spacing="normal"><path
           style="fill:#000000;stroke-width:0"
           inkscape:connector-curvature="0"
           d="m 472.16,421.25 0.03,0.13 0.04,0.15 0.04,0.16 0.04,0.18 0.06,0.19 0.06,0.21 0.06,0.22 0.07,0.22 0.08,0.23 0.09,0.24 0.1,0.25 0.1,0.24 0.11,0.25 0.12,0.25 0.13,0.25 0.14,0.25 0.15,0.24 0.15,0.24 0.17,0.23 0.18,0.22 0.18,0.22 0.2,0.2 0.21,0.19 0.22,0.18 0.23,0.16 0.25,0.14 0.12,0.07 0.13,0.06 0.14,0.05 0.13,0.05 0.14,0.05 0.14,0.04 0.15,0.03 0.15,0.03 0.15,0.02 0.16,0.02 0.16,0.01 h 0.16 c 0.25,0 1.44,0 2.48,-0.64 -1.39,-0.25 -2.39,-1.5 -2.39,-2.69 0,-0.79 0.55,-1.75 1.89,-1.75 1.1,0 2.69,0.89 2.69,2.89 0,2.6 -2.94,3.28 -4.63,3.28 -2.89,0 -4.64,-2.64 -5.23,-3.78 -1.25,3.28 -3.94,3.78 -5.37,3.78 -5.19,0 -8.04,-6.42 -8.04,-7.67 0,-0.5 0.5,-0.5 0.61,-0.5 0.39,0 0.55,0.11 0.64,0.55 1.69,5.28 4.99,6.53 6.68,6.53 0.95,0 2.68,-0.44 2.68,-3.33 0,-1.54 -0.84,-4.89 -2.68,-11.86 -0.8,-3.09 -2.54,-5.18 -4.74,-5.18 -0.3,0 -1.44,0 -2.48,0.65 1.25,0.24 2.34,1.28 2.34,2.69 0,1.34 -1.09,1.73 -1.84,1.73 -1.5,0 -2.75,-1.29 -2.75,-2.89 0,-2.28 2.5,-3.28 4.68,-3.28 3.3,0 5.08,3.49 5.24,3.78 0.59,-1.84 2.39,-3.78 5.37,-3.78 5.14,0 7.99,6.42 7.99,7.67 0,0.5 -0.45,0.5 -0.61,0.5 -0.44,0 -0.55,-0.2 -0.64,-0.54 -1.64,-5.33 -5.03,-6.53 -6.63,-6.53 -1.95,0 -2.75,1.59 -2.75,3.29 0,1.1 0.3,2.19 0.86,4.38 z"
           id="path1940" /></g>    </g>
    <rect
       y="288.00171"
       x="775.66266"
       height="35.603718"
       width="38.164177"
       id="rect1749"
       style="fill:#ffffff;fill-opacity:1;stroke:#000000;stroke-width:0.75717884;stroke-miterlimit:0.80000001;stroke-dasharray:none;stroke-dashoffset:0;stroke-opacity:1" />
    <g
       id="g2032"
       transform="translate(612.44872,191.13054)">
      <g
         word-spacing="normal"
         letter-spacing="normal"
         font-size-adjust="none"
         font-stretch="normal"
         font-weight="normal"
         font-variant="normal"
         font-style="normal"
         stroke-miterlimit="10.433"
         xml:space="preserve"
         transform="matrix(0.36119893,0,0,-0.36119893,-63.209812,234.56163)"
         id="content"
         style="font-style:normal;font-variant:normal;font-weight:normal;font-stretch:normal;letter-spacing:normal;word-spacing:normal;text-anchor:start;fill:none;fill-opacity:1;fill-rule:evenodd;stroke:#000000;stroke-linecap:butt;stroke-linejoin:miter;stroke-miterlimit:10.43299961;stroke-dasharray:none;stroke-dashoffset:0;stroke-opacity:1"><path
           id="path2025"
           d="m 472.16,421.25 0.03,0.13 0.04,0.15 0.04,0.16 0.04,0.18 0.06,0.19 0.06,0.21 0.06,0.22 0.07,0.22 0.08,0.23 0.09,0.24 0.1,0.25 0.1,0.24 0.11,0.25 0.12,0.25 0.13,0.25 0.14,0.25 0.15,0.24 0.15,0.24 0.17,0.23 0.18,0.22 0.18,0.22 0.2,0.2 0.21,0.19 0.22,0.18 0.23,0.16 0.25,0.14 0.12,0.07 0.13,0.06 0.14,0.05 0.13,0.05 0.14,0.05 0.14,0.04 0.15,0.03 0.15,0.03 0.15,0.02 0.16,0.02 0.16,0.01 h 0.16 c 0.25,0 1.44,0 2.48,-0.64 -1.39,-0.25 -2.39,-1.5 -2.39,-2.69 0,-0.79 0.55,-1.75 1.89,-1.75 1.1,0 2.69,0.89 2.69,2.89 0,2.6 -2.94,3.28 -4.63,3.28 -2.89,0 -4.64,-2.64 -5.23,-3.78 -1.25,3.28 -3.94,3.78 -5.37,3.78 -5.19,0 -8.04,-6.42 -8.04,-7.67 0,-0.5 0.5,-0.5 0.61,-0.5 0.39,0 0.55,0.11 0.64,0.55 1.69,5.28 4.99,6.53 6.68,6.53 0.95,0 2.68,-0.44 2.68,-3.33 0,-1.54 -0.84,-4.89 -2.68,-11.86 -0.8,-3.09 -2.54,-5.18 -4.74,-5.18 -0.3,0 -1.44,0 -2.48,0.65 1.25,0.24 2.34,1.28 2.34,2.69 0,1.34 -1.09,1.73 -1.84,1.73 -1.5,0 -2.75,-1.29 -2.75,-2.89 0,-2.28 2.5,-3.28 4.68,-3.28 3.3,0 5.08,3.49 5.24,3.78 0.59,-1.84 2.39,-3.78 5.37,-3.78 5.14,0 7.99,6.42 7.99,7.67 0,0.5 -0.45,0.5 -0.61,0.5 -0.44,0 -0.55,-0.2 -0.64,-0.54 -1.64,-5.33 -5.03,-6.53 -6.63,-6.53 -1.95,0 -2.75,1.59 -2.75,3.29 0,1.1 0.3,2.19 0.86,4.38 z"
           inkscape:connector-curvature="0"
           style="fill:#000000;stroke-width:0" /><path
           id="path2027"
           d="m 500.9,445.28 0.01,0.04 0.01,0.05 0.01,0.04 0.01,0.05 0.01,0.04 0.01,0.04 0.01,0.04 0.01,0.04 0.02,0.07 0.02,0.07 0.02,0.06 0.02,0.06 0.02,0.06 0.02,0.05 0.02,0.05 0.02,0.04 0.02,0.04 0.03,0.04 0.02,0.04 0.03,0.03 0.03,0.03 0.03,0.02 0.03,0.03 0.03,0.02 0.04,0.02 0.03,0.02 0.05,0.01 0.04,0.02 0.04,0.01 0.05,0.01 0.06,0.01 0.05,0.01 0.06,0.01 h 0.06 l 0.07,0.01 h 0.07 c 0.17,0.04 1.39,0.04 2.09,0.04 2.13,0 3.03,0 3.89,-0.29 1.58,-0.48 1.64,-1.5 1.64,-2.75 0,-0.54 0,-1 -0.23,-2.81 l -0.08,-0.39 c 0,-0.34 0.25,-0.51 0.59,-0.51 0.53,0 0.6,0.31 0.67,0.86 l 0.94,6.65 c 0,0.5 -0.42,0.5 -1.04,0.5 h -21.44 c -0.86,0 -0.94,0 -1.17,-0.73 l -2.21,-6.17 c -0.03,-0.15 -0.17,-0.46 -0.17,-0.63 0,-0.14 0.06,-0.48 0.59,-0.48 0.46,0 0.52,0.17 0.74,0.82 2.01,5.58 3.17,5.93 8.47,5.93 h 1.45 c 1.05,0 1.08,-0.04 1.08,-0.35 0,-0.03 0,-0.2 -0.14,-0.73 l -4.6,-18.33 c -0.31,-1.28 -0.42,-1.64 -4.07,-1.64 -1.25,0 -1.57,0 -1.57,-0.77 0,-0.09 0.07,-0.48 0.6,-0.48 0.97,0 2.01,0.11 2.98,0.11 0.99,0 2.03,0.03 3,0.03 0.99,0 2.17,0 3.14,-0.03 0.94,-0.05 1.99,-0.11 2.92,-0.11 0.29,0 0.82,0 0.82,0.76 0,0.49 -0.36,0.49 -1.44,0.49 -0.66,0 -1.36,0.05 -2.02,0.08 -1.18,0.09 -1.25,0.23 -1.25,0.65 0,0.25 0,0.32 0.13,0.8 z"
           inkscape:connector-curvature="0"
           style="fill:#000000;stroke-width:0" /><path
           id="path2029"
           d="m 538.41,423.09 0.03,0.1 0.02,0.11 0.03,0.12 0.03,0.11 0.03,0.12 0.03,0.12 0.06,0.25 0.06,0.25 0.06,0.25 0.06,0.24 0.06,0.25 0.03,0.11 0.03,0.12 0.03,0.11 0.02,0.11 0.03,0.1 0.02,0.1 0.02,0.1 0.02,0.09 0.02,0.08 0.02,0.08 0.01,0.07 0.01,0.06 0.01,0.06 0.01,0.05 v 0.04 0.03 c 0,0.91 -0.7,1.35 -1.45,1.35 -0.59,0 -1.48,-0.39 -1.83,-1.39 -0.15,-0.35 -2.5,-9.86 -2.84,-11.16 -0.36,-1.5 -0.45,-2.39 -0.45,-3.3 0,-0.54 0,-0.64 0.04,-0.89 -1.14,-2.64 -2.64,-4.18 -4.58,-4.18 -3.98,0 -3.98,3.68 -3.98,4.53 0,1.59 0.25,3.54 2.59,9.67 0.55,1.48 0.85,2.19 0.85,3.19 0,2.23 -1.64,4.07 -4.1,4.07 -4.73,0 -6.57,-7.21 -6.57,-7.67 0,-0.5 0.5,-0.5 0.61,-0.5 0.5,0 0.54,0.11 0.79,0.91 1.35,4.62 3.28,6.17 5.03,6.17 0.44,0 1.25,-0.05 1.25,-1.64 0,-1.25 -0.56,-2.64 -0.9,-3.48 -2.19,-5.88 -2.78,-8.18 -2.78,-10.07 0,-4.53 3.32,-6.28 7.06,-6.28 0.86,0 3.19,0 5.19,3.49 1.29,-3.19 4.73,-3.49 6.23,-3.49 3.73,0 5.92,3.14 7.22,6.13 1.69,3.89 3.28,10.56 3.28,12.95 0,2.75 -1.34,3.48 -2.19,3.48 -1.25,0 -2.48,-1.29 -2.48,-2.39 0,-0.64 0.3,-0.93 0.73,-1.34 0.55,-0.55 1.8,-1.84 1.8,-4.23 0,-1.69 -1.44,-6.58 -2.73,-9.11 -1.3,-2.64 -3.05,-4.39 -5.49,-4.39 -2.34,0 -3.69,1.5 -3.69,4.32 0,1.41 0.35,2.96 0.55,3.64 z"
           inkscape:connector-curvature="0"
           style="fill:#000000;stroke-width:0" /></g>    </g>
    <path
       style="fill:none;stroke:#000000;stroke-width:0.99177873px;stroke-linecap:butt;stroke-linejoin:miter;stroke-opacity:1"
       d="m 749.87117,305.80395 24.92899,-0.41629"
       id="path2092"
       inkscape:connector-curvature="0"
       sodipodi:nodetypes="cc" />
    <path
       style="fill:none;stroke:#000000;stroke-width:1px;stroke-linecap:butt;stroke-linejoin:miter;stroke-opacity:1"
       d="m 779.37121,317.43759 c 0,0 9.97204,7.06352 17.45105,-8.72552 7.19441,-15.18821 14.12704,-10.80304 14.12704,-10.80304"
       id="path2105"
       inkscape:connector-curvature="0"
       sodipodi:nodetypes="csc" />
  </g>
  <defs
     id="defs41">
    <marker
       refX="59.599998"
       orient="auto"
       markerHeight="7"
       markerWidth="7"
       viewBox="0 -5 10 10"
       id="arrow">
      <path
         inkscape:connector-curvature="0"
         id="path38"
         style="fill:none;stroke:#505050"
         d="M 0,-5 10,0 0,5" />
    </marker>
  </defs>
</svg>
