<?xml version="1.0" encoding="UTF-8" standalone="no"?>
<!-- Created with Inkscape (http://www.inkscape.org/) -->

<svg
   xmlns:dc="http://purl.org/dc/elements/1.1/"
   xmlns:cc="http://creativecommons.org/ns#"
   xmlns:rdf="http://www.w3.org/1999/02/22-rdf-syntax-ns#"
   xmlns:svg="http://www.w3.org/2000/svg"
   xmlns="http://www.w3.org/2000/svg"
   xmlns:sodipodi="http://sodipodi.sourceforge.net/DTD/sodipodi-0.dtd"
   xmlns:inkscape="http://www.inkscape.org/namespaces/inkscape"
   version="1.0"
   width="300"
   height="240"
   id="svg2"
   inkscape:version="0.91 r13725"
   sodipodi:docname="Dot_Product.svg"
   inkscape:export-filename="/home/ed203246/git/pystatsml/images/Dot_Product.png"
   inkscape:export-xdpi="90"
   inkscape:export-ydpi="90">
  <sodipodi:namedview
     pagecolor="#ffffff"
     bordercolor="#666666"
     borderopacity="1"
     objecttolerance="10"
     gridtolerance="10"
     guidetolerance="10"
     inkscape:pageopacity="0"
     inkscape:pageshadow="2"
     inkscape:window-width="1855"
     inkscape:window-height="1056"
     id="namedview35"
     showgrid="false"
     inkscape:zoom="2.15"
     inkscape:cx="205.7186"
     inkscape:cy="99.942509"
     inkscape:window-x="65"
     inkscape:window-y="24"
     inkscape:window-maximized="1"
     inkscape:current-layer="layer1" />
  <metadata
     id="metadata37">
    <rdf:RDF>
      <cc:Work
         rdf:about="">
        <dc:format>image/svg+xml</dc:format>
        <dc:type
           rdf:resource="http://purl.org/dc/dcmitype/StillImage" />
      </cc:Work>
    </rdf:RDF>
  </metadata>
  <defs
     id="defs4">
    <marker
       refX="0"
       refY="0"
       orient="auto"
       id="StopM"
       style="overflow:visible">
      <path
         d="M 0,5.65 L 0,-5.65"
         transform="scale(0.4,0.4)"
         id="path2870"
         style="fill:none;fill-opacity:0.75;fill-rule:evenodd;stroke:#000000;stroke-width:1pt" />
    </marker>
    <marker
       refX="0"
       refY="0"
       orient="auto"
       id="DistanceOut"
       style="overflow:visible">
      <g
         id="g2816">
        <path
           d="M 0,0 L -2,0"
           id="path2316"
           style="fill:none;stroke:#ffffff;stroke-width:1.14999998;stroke-linecap:square" />
        <path
           d="M 0,0 L -13,4 L -9,0 L -13,-4 L 0,0 z"
           id="path2312"
           style="fill:#000000;fill-rule:evenodd;stroke:none" />
        <path
           d="M 0,-4 L 0,40"
           id="path2314"
           style="fill:none;stroke:#000000;stroke-width:1;stroke-linecap:square" />
      </g>
    </marker>
    <marker
       refX="0"
       refY="0"
       orient="auto"
       id="DistanceIn"
       style="overflow:visible">
      <g
         id="g2300">
        <path
           d="M 0,0 L 2,0"
           id="path2306"
           style="fill:none;stroke:#ffffff;stroke-width:1.14999998;stroke-linecap:square" />
        <path
           d="M 0,0 L 13,4 L 9,0 L 13,-4 L 0,0 z"
           id="path2302"
           style="fill:#000000;fill-rule:evenodd;stroke:none" />
        <path
           d="M 0,-4 L 0,40"
           id="path2304"
           style="fill:none;stroke:#000000;stroke-width:1;stroke-linecap:square" />
      </g>
    </marker>
    <marker
       refX="0"
       refY="0"
       orient="auto"
       id="Arrow1Mend"
       style="overflow:visible">
      <path
         d="M 0,0 L 5,-5 L -12.5,0 L 5,5 L 0,0 z"
         transform="matrix(-0.4,0,0,-0.4,-4,0)"
         id="path2769"
         style="fill-rule:evenodd;stroke:#000000;stroke-width:1pt;marker-start:none" />
    </marker>
    <marker
       refX="0"
       refY="0"
       orient="auto"
       id="Arrow1Mstart"
       style="overflow:visible">
      <path
         d="M 0,0 L 5,-5 L -12.5,0 L 5,5 L 0,0 z"
         transform="matrix(0.4,0,0,0.4,4,0)"
         id="path2766"
         style="fill-rule:evenodd;stroke:#000000;stroke-width:1pt;marker-start:none" />
    </marker>
    <marker
       refX="0"
       refY="0"
       orient="auto"
       id="Arrow1Sstart"
       style="overflow:visible">
      <path
         d="M 0,0 L 5,-5 L -12.5,0 L 5,5 L 0,0 z"
         transform="matrix(0.2,0,0,0.2,1.2,0)"
         id="path2772"
         style="fill-rule:evenodd;stroke:#000000;stroke-width:1pt;marker-start:none" />
    </marker>
  </defs>
  <g
     id="layer1">
    <path
       d="M 112.35684,20.470637 L 114.34836,29.522627 L 121.18064,6.6658599 L 103.30627,22.462468 L 112.35684,20.470637 z"
       id="path5344"
       style="fill-rule:evenodd;stroke:none;stroke-width:0.4pt;marker-start:none" />
    <path
       d="M 273.75302,125.74642 L 268.76485,133.5577 L 289.75081,122.21851 L 265.94297,120.75745 L 273.75302,125.74642 z"
       id="path5346"
       style="fill-rule:evenodd;stroke:none;stroke-width:0.4pt;marker-start:none" />
    <path
       d="M 114.82513,16.211978 L 7.1699599,184.6074 L 277.20998,125.06759"
       id="path5335"
       style="opacity:1;color:#000000;fill:none;fill-opacity:1;fill-rule:evenodd;stroke:#000000;stroke-width:3;stroke-linecap:round;stroke-linejoin:miter;marker:none;marker-start:none;marker-mid:none;marker-end:none;stroke-miterlimit:4;stroke-dasharray:none;stroke-dashoffset:0;stroke-opacity:1;visibility:visible;display:inline;overflow:visible;enable-background:accumulate" />
    <path
       d="M 40.271942,138.90458 C 49.258252,144.78506 54.832777,153.03409 56.937112,163.56526"
       transform="matrix(1.0921362,0,0,1.0923085,-11.948849,-4.1435116)"
       id="path6149"
       style="color:#000000;fill:none;fill-opacity:1;fill-rule:evenodd;stroke:#000000;stroke-width:2.74669337;stroke-linecap:round;stroke-linejoin:round;marker:none;marker-start:none;marker-mid:none;marker-end:none;stroke-miterlimit:4;stroke-dashoffset:0;stroke-opacity:1;visibility:visible;display:inline;overflow:visible;enable-background:accumulate" />
    <path
       d="M 121.85842,7.0868551 L 150.27962,151.58582"
       id="path6159"
       style="opacity:1;color:#000000;fill:none;fill-opacity:1;fill-rule:evenodd;stroke:#000000;stroke-width:2;stroke-linecap:round;stroke-linejoin:miter;marker:none;marker-start:none;marker-mid:none;marker-end:none;stroke-miterlimit:4;stroke-dasharray:2.99999995, 8.99999985;stroke-dashoffset:0;stroke-opacity:1;visibility:visible;display:inline;overflow:visible;enable-background:accumulate" />
    <path
       d="M 7.2394646,200.43651 L 154.20449,168.16016"
       id="path6161"
       style="color:#000000;fill:none;fill-opacity:1;fill-rule:evenodd;stroke:#000000;stroke-width:2;stroke-linecap:butt;stroke-linejoin:miter;marker:none;marker-start:none;marker-mid:none;marker-end:none;stroke-miterlimit:4;stroke-dashoffset:0;stroke-opacity:1;visibility:visible;display:inline;overflow:visible;enable-background:accumulate" />
    <path
       d="M 46.593946,150.20659 C 46.593944,146.25569 47.550892,142.45588 49.464793,138.80714 C 51.378684,135.15845 53.891372,133.34528 57.002865,133.36764 C 58.939133,133.31171 60.522854,133.97485 61.754033,135.35709 C 62.985177,136.73937 63.600758,138.84633 63.600777,141.67799 C 63.600758,145.88634 62.646608,149.79248 60.738324,153.39642 C 58.830008,157.00037 56.325714,158.80234 53.225435,158.80234 C 51.26676,158.80234 49.671847,158.04126 48.440689,156.51909 C 47.209524,154.99693 46.593944,152.89277 46.593946,150.20659 L 46.593946,150.20659 z M 50.421742,144.96855 L 60.293427,144.96855 C 60.584412,143.25613 60.729913,141.87387 60.72993,140.82177 C 60.729913,139.31082 60.377354,138.10484 59.672249,137.20383 C 58.967114,136.30287 58.032551,135.85237 56.868556,135.85235 C 53.992103,135.85237 51.843167,138.8911 50.421742,144.96855 L 50.421742,144.96855 z M 59.806558,147.48684 L 49.901296,147.48684 C 49.688635,148.99782 49.582308,150.16183 49.582313,150.97886 C 49.582308,152.59057 49.923675,153.88329 50.606416,154.85702 C 51.289145,155.83076 52.223708,156.31763 53.410109,156.31763 C 54.77557,156.31763 56.026318,155.52857 57.162357,153.95044 C 58.29837,152.37232 59.179769,150.21779 59.806558,147.48684 L 59.806558,147.48684 z"
       transform="scale(1.0044848,0.9955352)"
       id="text2213"
       style="font-size:34.38301086px;font-style:normal;font-variant:normal;font-weight:normal;font-stretch:normal;text-indent:0;text-align:start;text-decoration:none;line-height:125%;letter-spacing:normal;word-spacing:normal;text-transform:none;direction:ltr;block-progression:tb;writing-mode:lr-tb;text-anchor:start;color:#000000;fill-opacity:1;fill-rule:evenodd;stroke:none;stroke-width:3;stroke-linecap:round;stroke-linejoin:round;marker:none;marker-start:none;marker-mid:none;marker-end:none;stroke-miterlimit:4;stroke-dashoffset:0;stroke-opacity:1;visibility:visible;display:inline;overflow:visible;enable-background:accumulate;font-family:Arial" />
    <path
       d="M 8.2090365,204.8513 L 6.2698927,196.02172"
       id="path2249"
       style="fill:none;fill-opacity:0.75;fill-rule:evenodd;stroke:#000000;stroke-width:2" />
    <path
       d="M 155.17406,172.57495 L 153.23492,163.74537"
       id="path2251"
       style="fill:none;fill-opacity:0.75;fill-rule:evenodd;stroke:#000000;stroke-width:2" />
    <g
       transform="matrix(2.450897,0,0,2.5561672,7.2081132,-46.237357)"
       id="g4261">
      <g
         style="font-style:normal;font-variant:normal;font-weight:normal;font-stretch:normal;letter-spacing:normal;word-spacing:normal;text-anchor:start;fill:none;fill-opacity:1;fill-rule:evenodd;stroke:#000000;stroke-linecap:butt;stroke-linejoin:miter;stroke-miterlimit:10.43299961;stroke-dasharray:none;stroke-dashoffset:0;stroke-opacity:1"
         id="content"
         transform="matrix(0.34285714,0,0,-0.34285714,-60,225)"
         xml:space="preserve"
         stroke-miterlimit="10.433"
         font-style="normal"
         font-variant="normal"
         font-weight="normal"
         font-stretch="normal"
         font-size-adjust="none"
         letter-spacing="normal"
         word-spacing="normal"><path
           style="fill:#000000;stroke-width:0"
           inkscape:connector-curvature="0"
           d="m 466.66,425.98 0,14.59 -8.82,-0.4 0,-2.34 c 3.09,0 3.44,0 3.44,-1.94 l 0,-29.89 2.34,0 2.44,2.79 c 0.4,-0.4 2.84,-3.09 7.28,-3.09 l -0.45,1.8 c -3.49,0 -5.43,2.68 -5.93,3.43 l 0,0 0,12.5 c 1.34,1.75 3.74,3.19 6.47,3.19 6.08,0 6.08,-6.03 6.08,-9.51 0,-2.34 0,-5.08 -1.3,-7.02 -1.44,-2.05 -3.73,-2.59 -5.32,-2.59 l 0.45,-1.8 c 7.42,0 12.55,4.48 12.55,11.41 0,6.62 -4.68,11.3 -11.91,11.3 -3.63,0 -6.12,-1.44 -7.32,-2.43 z"
           id="path4264" /></g>    </g>
    <g
       id="g4354"
       transform="matrix(2.5527531,0,0,2.5527531,-175.0943,-192.37336)">
      <g
         word-spacing="normal"
         letter-spacing="normal"
         font-size-adjust="none"
         font-stretch="normal"
         font-weight="normal"
         font-variant="normal"
         font-style="normal"
         stroke-miterlimit="10.433"
         xml:space="preserve"
         transform="matrix(0.34285714,0,0,-0.34285714,-60,225)"
         id="g4356"
         style="font-style:normal;font-variant:normal;font-weight:normal;font-stretch:normal;letter-spacing:normal;word-spacing:normal;text-anchor:start;fill:none;fill-opacity:1;fill-rule:evenodd;stroke:#000000;stroke-linecap:butt;stroke-linejoin:miter;stroke-miterlimit:10.43299961;stroke-dasharray:none;stroke-dashoffset:0;stroke-opacity:1"><path
           id="path4358"
           d="m 474.63,409.84 0,-0.3 0.01,-0.31 0.01,-0.16 0.01,-0.16 0.02,-0.16 0.03,-0.16 0.03,-0.17 0.05,-0.16 0.05,-0.16 0.06,-0.16 0.08,-0.15 0.08,-0.16 0.1,-0.14 0.12,-0.15 0.13,-0.14 0.14,-0.14 0.16,-0.13 0.09,-0.06 0.09,-0.06 0.1,-0.06 0.1,-0.06 0.11,-0.06 0.11,-0.05 0.12,-0.05 0.12,-0.05 0.13,-0.05 0.14,-0.05 0.14,-0.04 0.14,-0.04 0.15,-0.04 0.16,-0.04 0.16,-0.03 0.17,-0.03 0.18,-0.03 0.18,-0.03 0.19,-0.02 0.2,-0.02 0.2,-0.02 0.21,-0.01 0.22,-0.02 0.22,0 0.23,-0.01 0.24,0 2.39,0 c 1,0 1.6,0 1.6,1.2 0,1.14 -0.65,1.14 -1.3,1.14 -3.04,0.05 -3.04,0.7 -3.04,1.84 l 0,10.71 c 0,4.44 -3.53,7.68 -10.96,7.68 -2.84,0 -8.91,-0.2 -8.91,-4.59 0,-2.19 1.74,-3.14 3.09,-3.14 1.54,0 3.13,1.05 3.13,3.14 0,1.5 -0.94,2.34 -1.09,2.44 1.39,0.3 2.99,0.35 3.58,0.35 3.74,0 5.49,-2.09 5.49,-5.88 l 0,-1.69 0,-1.54 0,-4.73 c 0,-4.79 -4.59,-5.43 -5.83,-5.43 -2.55,0 -4.54,1.74 -4.54,3.93 0,5.38 7.87,6.08 10.37,6.23 l 0,0 0,1.54 c -3.54,-0.15 -16.2,-0.6 -16.2,-7.82 0,-4.78 6.18,-5.68 9.62,-5.68 3.98,0 6.33,2.04 7.42,4.14 z"
           inkscape:connector-curvature="0"
           style="fill:#000000;stroke-width:0" /></g>    </g>
    <g
       id="g5562"
       transform="matrix(1.3654127,0,0,1.3654127,-117.72969,102.16542)">
      <g
         word-spacing="normal"
         letter-spacing="normal"
         font-size-adjust="none"
         font-stretch="normal"
         font-weight="normal"
         font-variant="normal"
         font-style="normal"
         stroke-miterlimit="10.433"
         xml:space="preserve"
         transform="matrix(0.34285714,0,0,-0.34285714,-60,225)"
         id="g5564"
         style="font-style:normal;font-variant:normal;font-weight:normal;font-stretch:normal;letter-spacing:normal;word-spacing:normal;text-anchor:start;fill:none;fill-opacity:1;fill-rule:evenodd;stroke:#000000;stroke-linecap:butt;stroke-linejoin:miter;stroke-miterlimit:10.43299961;stroke-dasharray:none;stroke-dashoffset:0;stroke-opacity:1"><path
           id="path5566"
           d="m 474.63,409.84 0,-0.3 0.01,-0.31 0.01,-0.16 0.01,-0.16 0.02,-0.16 0.03,-0.16 0.03,-0.17 0.05,-0.16 0.05,-0.16 0.06,-0.16 0.08,-0.15 0.08,-0.16 0.1,-0.14 0.12,-0.15 0.13,-0.14 0.14,-0.14 0.16,-0.13 0.09,-0.06 0.09,-0.06 0.1,-0.06 0.1,-0.06 0.11,-0.06 0.11,-0.05 0.12,-0.05 0.12,-0.05 0.13,-0.05 0.14,-0.05 0.14,-0.04 0.14,-0.04 0.15,-0.04 0.16,-0.04 0.16,-0.03 0.17,-0.03 0.18,-0.03 0.18,-0.03 0.19,-0.02 0.2,-0.02 0.2,-0.02 0.21,-0.01 0.22,-0.02 0.22,0 0.23,-0.01 0.24,0 2.39,0 c 1,0 1.6,0 1.6,1.2 0,1.14 -0.65,1.14 -1.3,1.14 -3.04,0.05 -3.04,0.7 -3.04,1.84 l 0,10.71 c 0,4.44 -3.53,7.68 -10.96,7.68 -2.84,0 -8.91,-0.2 -8.91,-4.59 0,-2.19 1.74,-3.14 3.09,-3.14 1.54,0 3.13,1.05 3.13,3.14 0,1.5 -0.94,2.34 -1.09,2.44 1.39,0.3 2.99,0.35 3.58,0.35 3.74,0 5.49,-2.09 5.49,-5.88 l 0,-1.69 0,-1.54 0,-4.73 c 0,-4.79 -4.59,-5.43 -5.83,-5.43 -2.55,0 -4.54,1.74 -4.54,3.93 0,5.38 7.87,6.08 10.37,6.23 l 0,0 0,1.54 c -3.54,-0.15 -16.2,-0.6 -16.2,-7.82 0,-4.78 6.18,-5.68 9.62,-5.68 3.98,0 6.33,2.04 7.42,4.14 z"
           inkscape:connector-curvature="0"
           style="fill:#000000;stroke-width:0" /><path
           id="path5568"
           d="m 491.44,423.2 -6.52,-0.28 0,-1.95 c 2.06,0 2.33,0 2.33,-1.36 l 0,-20.61 1.57,0 c 0.56,0 0.59,0.04 0.77,0.18 0.31,0.38 1.01,1.36 1.32,1.74 2.34,-1.99 4.64,-2.13 5.79,-2.13 l -0.41,1.6 c -1.89,0 -3.46,0.88 -4.61,2.52 l 0,7.98 c 0.98,1.18 2.83,2.2 5.02,2.2 4.82,0 4.82,-4.12 4.82,-6.25 0,-2.16 0,-6.45 -5.23,-6.45 l 0.41,-1.6 c 6,0 9.66,3.38 9.66,7.99 0,4.22 -3.1,7.91 -9.17,7.91 -2.23,0 -4.18,-0.59 -5.75,-1.57 z"
           inkscape:connector-curvature="0"
           style="fill:#000000;stroke-width:0" /><path
           id="path5570"
           d="m 559.22,422.29 0.14,0 0.15,0 0.15,0.01 0.07,0 0.07,0 0.07,0.01 0.08,0.01 0.07,0.01 0.07,0.01 0.06,0.02 0.07,0.01 0.07,0.02 0.06,0.02 0.06,0.03 0.06,0.03 0.05,0.03 0.06,0.03 0.05,0.04 0.04,0.04 0.05,0.05 0.03,0.05 0.02,0.03 0.02,0.02 0.02,0.03 0.01,0.03 0.02,0.03 0.01,0.04 0.01,0.03 0.01,0.04 0.01,0.03 0.01,0.04 0.01,0.04 0,0.04 0.01,0.04 0,0.04 0,0.05 0,0.05 c 0,0.99 -0.94,0.99 -1.64,0.99 l -29.84,0 c -0.7,0 -1.64,0 -1.64,-0.99 0,-1 0.94,-1 1.69,-1 z"
           inkscape:connector-curvature="0"
           style="fill:#000000;stroke-width:0" /><path
           id="path5572"
           d="m 559.27,412.62 0.13,0.01 0.14,0 0.14,0 0.07,0.01 0.07,0 0.07,0.01 0.07,0.01 0.07,0.01 0.07,0.01 0.06,0.01 0.07,0.02 0.06,0.02 0.06,0.02 0.06,0.02 0.06,0.03 0.06,0.03 0.05,0.04 0.05,0.04 0.04,0.04 0.05,0.04 0.02,0.03 0.02,0.03 0.01,0.02 0.02,0.03 0.02,0.03 0.01,0.03 0.02,0.03 0.01,0.03 0.01,0.04 0.01,0.03 0.01,0.04 0.01,0.04 0.01,0.04 0,0.04 0.01,0.04 0,0.04 0,0.05 0,0.04 c 0,1 -0.94,1 -1.69,1 l -29.74,0 c -0.75,0 -1.69,0 -1.69,-1 0,-1 0.94,-1 1.64,-1 z"
           inkscape:connector-curvature="0"
           style="fill:#000000;stroke-width:0" /><path
           id="path5574"
           d="m 585.57,441.67 0,0.15 -0.01,0.15 0,0.15 0,0.07 -0.01,0.08 -0.01,0.07 0,0.07 -0.01,0.07 -0.02,0.07 -0.01,0.07 -0.02,0.07 -0.02,0.06 -0.02,0.06 -0.02,0.06 -0.03,0.06 -0.03,0.05 -0.04,0.05 -0.04,0.05 -0.04,0.05 -0.04,0.04 -0.05,0.04 -0.03,0.01 -0.03,0.02 -0.03,0.02 -0.03,0.01 -0.03,0.01 -0.03,0.02 -0.04,0.01 -0.03,0.01 -0.04,0.01 -0.04,0.01 -0.03,0 -0.04,0.01 -0.05,0 -0.04,0.01 -0.04,0 -0.05,0 c -1,0 -1,-1.09 -1,-1.84 l 0,-46.13 c 0,-0.8 0,-1.84 1,-1.84 1,0 1,0.9 1,1.69 z"
           inkscape:connector-curvature="0"
           style="fill:#000000;stroke-width:0" /><path
           id="path5576"
           d="m 595.28,441.52 0,0.15 0,0.15 -0.01,0.16 0,0.16 -0.01,0.08 -0.01,0.08 -0.01,0.07 -0.01,0.08 -0.02,0.07 -0.01,0.08 -0.02,0.07 -0.02,0.07 -0.03,0.06 -0.03,0.07 -0.03,0.06 -0.03,0.06 -0.04,0.05 -0.04,0.05 -0.05,0.05 -0.05,0.04 -0.03,0.02 -0.02,0.02 -0.03,0.02 -0.03,0.02 -0.03,0.01 -0.04,0.02 -0.03,0.01 -0.04,0.01 -0.03,0.01 -0.04,0.01 -0.04,0.01 -0.04,0.01 -0.04,0 -0.04,0.01 -0.05,0 -0.05,0 c -0.99,0 -0.99,-0.9 -0.99,-1.69 l 0,-46.43 c 0,-0.79 0,-1.69 0.99,-1.69 1,0 1,1.09 1,1.84 z"
           inkscape:connector-curvature="0"
           style="fill:#000000;stroke-width:0" /><path
           id="path5578"
           d="m 620.63,409.84 0,-0.3 0.01,-0.31 0.01,-0.16 0.01,-0.16 0.02,-0.16 0.03,-0.16 0.03,-0.17 0.05,-0.16 0.05,-0.16 0.06,-0.16 0.08,-0.15 0.08,-0.16 0.1,-0.14 0.12,-0.15 0.13,-0.14 0.14,-0.14 0.16,-0.13 0.09,-0.06 0.09,-0.06 0.1,-0.06 0.1,-0.06 0.11,-0.06 0.11,-0.05 0.12,-0.05 0.12,-0.05 0.13,-0.05 0.14,-0.05 0.14,-0.04 0.14,-0.04 0.15,-0.04 0.16,-0.04 0.16,-0.03 0.17,-0.03 0.18,-0.03 0.18,-0.03 0.19,-0.02 0.2,-0.02 0.2,-0.02 0.21,-0.01 0.22,-0.02 0.22,0 0.23,-0.01 0.24,0 2.39,0 c 1,0 1.6,0 1.6,1.2 0,1.14 -0.65,1.14 -1.3,1.14 -3.04,0.05 -3.04,0.7 -3.04,1.84 l 0,10.71 c 0,4.44 -3.53,7.68 -10.96,7.68 -2.84,0 -8.91,-0.2 -8.91,-4.59 0,-2.19 1.74,-3.14 3.09,-3.14 1.54,0 3.13,1.05 3.13,3.14 0,1.5 -0.94,2.34 -1.09,2.44 1.39,0.3 2.99,0.35 3.58,0.35 3.74,0 5.48,-2.09 5.48,-5.88 l 0,-1.69 0,-1.54 0,-4.73 c 0,-4.79 -4.58,-5.43 -5.82,-5.43 -2.55,0 -4.54,1.74 -4.54,3.93 0,5.38 7.87,6.08 10.36,6.23 l 0,0 0,1.54 c -3.53,-0.15 -16.19,-0.6 -16.19,-7.82 0,-4.78 6.18,-5.68 9.62,-5.68 3.98,0 6.32,2.04 7.42,4.14 z"
           inkscape:connector-curvature="0"
           style="fill:#000000;stroke-width:0" /><path
           id="path5580"
           d="m 638.57,441.67 0,0.15 -0.01,0.15 0,0.15 0,0.07 -0.01,0.08 -0.01,0.07 0,0.07 -0.01,0.07 -0.02,0.07 -0.01,0.07 -0.02,0.07 -0.02,0.06 -0.02,0.06 -0.02,0.06 -0.03,0.06 -0.03,0.05 -0.04,0.05 -0.04,0.05 -0.04,0.05 -0.04,0.04 -0.05,0.04 -0.03,0.01 -0.03,0.02 -0.03,0.02 -0.03,0.01 -0.03,0.01 -0.03,0.02 -0.04,0.01 -0.03,0.01 -0.04,0.01 -0.04,0.01 -0.03,0 -0.04,0.01 -0.05,0 -0.04,0.01 -0.04,0 -0.05,0 c -1,0 -1,-1.09 -1,-1.84 l 0,-46.13 c 0,-0.8 0,-1.84 1,-1.84 1,0 1,0.9 1,1.69 z"
           inkscape:connector-curvature="0"
           style="fill:#000000;stroke-width:0" /><path
           id="path5582"
           d="m 648.28,441.52 0,0.15 0,0.15 -0.01,0.16 0,0.16 -0.01,0.08 -0.01,0.08 -0.01,0.07 -0.01,0.08 -0.02,0.07 -0.01,0.08 -0.02,0.07 -0.02,0.07 -0.03,0.06 -0.03,0.07 -0.03,0.06 -0.03,0.06 -0.04,0.05 -0.04,0.05 -0.05,0.05 -0.05,0.04 -0.03,0.02 -0.02,0.02 -0.03,0.02 -0.03,0.02 -0.03,0.01 -0.04,0.02 -0.03,0.01 -0.04,0.01 -0.03,0.01 -0.04,0.01 -0.04,0.01 -0.04,0.01 -0.04,0 -0.04,0.01 -0.05,0 -0.05,0 c -0.99,0 -0.99,-0.9 -0.99,-1.69 l 0,-46.43 c 0,-0.79 0,-1.69 0.99,-1.69 1,0 1,1.09 1,1.84 z"
           inkscape:connector-curvature="0"
           style="fill:#000000;stroke-width:0" /><path
           id="path5584"
           d="m 668.83,416.86 0,0.38 0.01,0.36 0.01,0.36 0.02,0.35 0.03,0.34 0.03,0.34 0.04,0.32 0.04,0.32 0.05,0.31 0.05,0.3 0.05,0.29 0.06,0.29 0.14,0.54 0.15,0.52 0.16,0.49 0.19,0.46 0.19,0.43 0.21,0.4 0.22,0.37 0.23,0.35 0.24,0.33 0.25,0.3 0.26,0.28 0.26,0.25 0.27,0.23 0.28,0.21 0.27,0.19 0.28,0.17 0.29,0.15 0.28,0.13 0.28,0.11 0.28,0.09 0.28,0.08 0.28,0.06 0.27,0.05 0.26,0.03 0.26,0.02 0.25,0.01 c 0.45,0 3.59,-0.05 5.33,-1.84 -2.04,-0.15 -2.34,-1.64 -2.34,-2.29 0,-1.3 0.9,-2.3 2.29,-2.3 1.3,0 2.29,0.85 2.29,2.34 0,3.4 -3.78,5.34 -7.62,5.34 -6.22,0 -10.8,-5.38 -10.8,-11.56 0,-6.38 4.92,-11.31 10.7,-11.31 6.68,0 8.27,5.98 8.27,6.48 0,0.5 -0.49,0.5 -0.65,0.5 -0.44,0 -0.54,-0.2 -0.64,-0.5 -1.45,-4.63 -4.68,-5.23 -6.53,-5.23 -2.64,0 -7.02,2.14 -7.02,10.16 z"
           inkscape:connector-curvature="0"
           style="fill:#000000;stroke-width:0" /><path
           id="path5586"
           d="m 708.46,416.66 -0.01,0.59 -0.05,0.59 -0.07,0.58 -0.09,0.57 -0.13,0.56 -0.15,0.55 -0.17,0.54 -0.2,0.53 -0.22,0.52 -0.25,0.5 -0.26,0.49 -0.29,0.47 -0.31,0.46 -0.33,0.44 -0.35,0.42 -0.36,0.41 -0.39,0.39 -0.4,0.36 -0.41,0.35 -0.44,0.33 -0.44,0.3 -0.46,0.29 -0.48,0.26 -0.48,0.23 -0.5,0.21 -0.51,0.19 -0.52,0.16 -0.53,0.13 -0.54,0.1 -0.55,0.08 -0.56,0.04 -0.56,0.02 -0.05,-1.1 c 2.19,0 4.34,-1.1 5.63,-3.24 1.3,-2.14 1.3,-5.03 1.3,-6.92 0,-1.79 0,-4.49 -1.1,-6.68 -1.09,-2.24 -3.28,-3.68 -5.78,-3.68 l 0,0 c -2.14,0 -4.33,1.04 -5.68,3.34 -1.24,2.19 -1.24,5.23 -1.24,7.02 0,1.94 0,4.63 1.2,6.82 1.34,2.3 3.68,3.34 5.67,3.34 l 0.05,1.1 c -6.22,0 -11.05,-5.43 -11.05,-11.66 0,-6.43 5.17,-11.21 11,-11.21 6.03,0 11.06,4.88 11.06,11.21 z"
           inkscape:connector-curvature="0"
           style="fill:#000000;stroke-width:0" /><path
           id="path5588"
           d="m 720.36,415.66 0.11,-0.02 0.13,-0.02 0.14,-0.03 0.16,-0.03 0.17,-0.04 0.18,-0.05 0.18,-0.05 0.2,-0.05 0.21,-0.06 0.21,-0.07 0.21,-0.08 0.22,-0.09 0.22,-0.09 0.22,-0.1 0.22,-0.12 0.22,-0.12 0.22,-0.13 0.21,-0.14 0.2,-0.15 0.2,-0.16 0.19,-0.18 0.18,-0.19 0.17,-0.2 0.16,-0.21 0.14,-0.22 0.07,-0.12 0.06,-0.12 0.06,-0.13 0.05,-0.12 0.05,-0.13 0.05,-0.14 0.04,-0.14 0.03,-0.14 0.03,-0.15 0.03,-0.15 0.02,-0.15 0.01,-0.16 0.01,-0.16 0,-0.17 c 0,-2.54 -1.74,-4.53 -5.63,-4.53 -4.18,0 -5.98,2.84 -6.92,7.07 -0.15,0.65 -0.2,0.85 -0.7,0.85 -0.64,0 -0.64,-0.35 -0.64,-1.25 l 0,-6.57 c 0,-0.85 0,-1.2 0.54,-1.2 0.25,0 0.3,0.05 1.25,1 0.09,0.1 0.09,0.2 0.99,1.14 2.19,-2.09 4.44,-2.14 5.48,-2.14 5.73,0 8.02,3.34 8.02,6.93 0,2.64 -1.49,4.13 -2.09,4.73 -1.64,1.59 -3.59,1.99 -5.68,2.39 -2.79,0.55 -6.13,1.2 -6.13,4.09 0,1.74 1.3,3.78 5.58,3.78 5.48,0 5.73,-4.48 5.83,-6.03 0.05,-0.45 0.5,-0.45 0.6,-0.45 0.65,0 0.65,0.25 0.65,1.2 l 0,5.03 c 0,0.85 0,1.2 -0.55,1.2 -0.25,0 -0.35,0 -0.99,-0.6 -0.16,-0.2 -0.65,-0.65 -0.85,-0.8 -1.9,1.4 -3.94,1.4 -4.69,1.4 -6.08,0 -7.96,-3.34 -7.96,-6.13 0,-1.74 0.79,-3.14 2.13,-4.23 1.6,-1.3 2.99,-1.6 6.58,-2.3 z"
           inkscape:connector-curvature="0"
           style="fill:#000000;stroke-width:0" /><path
           id="path5590"
           d="m 746.49,394.04 0,0.03 0,0.03 -0.01,0.01 0,0.02 0,0.01 -0.01,0.02 0,0.02 -0.01,0.01 -0.01,0.02 -0.01,0.02 -0.01,0.03 -0.01,0.02 -0.02,0.02 -0.02,0.03 -0.02,0.03 -0.02,0.03 -0.03,0.03 -0.03,0.04 -0.01,0.02 -0.02,0.02 -0.02,0.02 -0.02,0.02 -0.02,0.02 -0.02,0.03 -0.02,0.02 -0.02,0.02 -0.02,0.03 -0.03,0.02 -0.02,0.03 -0.03,0.03 -0.02,0.03 -0.03,0.03 -0.03,0.03 -0.03,0.03 -0.03,0.03 -0.03,0.03 -0.04,0.04 -0.03,0.03 -0.04,0.04 -0.03,0.03 -0.04,0.04 -0.04,0.04 c -6.23,6.28 -7.82,15.69 -7.82,23.31 0,8.67 1.9,17.34 8.02,23.57 0.65,0.59 0.65,0.69 0.65,0.84 0,0.35 -0.2,0.5 -0.5,0.5 -0.5,0 -4.98,-3.39 -7.92,-9.72 -2.54,-5.47 -3.14,-11 -3.14,-15.19 0,-3.88 0.55,-9.91 3.29,-15.54 2.99,-6.12 7.27,-9.36 7.77,-9.36 0.3,0 0.5,0.15 0.5,0.49 z"
           inkscape:connector-curvature="0"
           style="fill:#000000;stroke-width:0" /><path
           id="path5592"
           d="m 771.66,430.91 0,0.31 -0.01,0.34 -0.01,0.36 -0.02,0.37 -0.03,0.38 -0.04,0.4 -0.05,0.41 -0.06,0.41 -0.06,0.42 -0.08,0.42 -0.09,0.43 -0.1,0.42 -0.11,0.43 -0.13,0.42 -0.13,0.41 -0.16,0.4 -0.17,0.4 -0.18,0.39 -0.2,0.37 -0.22,0.35 -0.23,0.34 -0.25,0.32 -0.27,0.3 -0.29,0.27 -0.31,0.25 -0.17,0.12 -0.16,0.11 -0.18,0.1 -0.17,0.09 -0.19,0.09 -0.19,0.07 -0.19,0.07 -0.2,0.06 -0.21,0.06 -0.21,0.04 -0.21,0.03 -0.23,0.03 -0.23,0.01 -0.23,0.01 -0.05,-1.1 c 2.44,0 2.74,-3.18 2.74,-6.02 0,-2.45 -0.4,-4.99 -1.6,-9.92 l -10.41,0 c 0.85,3.19 1.85,7.17 3.84,10.71 1.34,2.44 3.19,5.23 5.43,5.23 l 0.05,1.1 c -6.93,0 -14.6,-14.05 -14.6,-25.46 0,-4.68 1.44,-10.21 5.98,-10.21 l 0,1.1 c -1.64,0 -2.69,1.44 -2.69,6.07 0,2.1 0.3,4.99 1.59,9.87 l 10.37,0 c -0.56,-2.29 -1.6,-6.53 -3.49,-10.11 -1.75,-3.39 -3.64,-5.83 -5.78,-5.83 l 0,-1.1 c 7.02,0 14.59,14.3 14.59,25.46 z"
           inkscape:connector-curvature="0"
           style="fill:#000000;stroke-width:0" /><path
           id="path5594"
           d="m 788.4,418.45 -0.01,0.37 0,0.39 -0.01,0.39 -0.01,0.41 -0.04,0.84 -0.06,0.88 -0.09,0.92 -0.1,0.94 -0.14,0.98 -0.16,1 -0.2,1.02 -0.23,1.04 -0.27,1.05 -0.3,1.06 -0.35,1.06 -0.39,1.07 -0.22,0.53 -0.22,0.54 -0.24,0.53 -0.25,0.53 c -2.99,6.12 -7.27,9.36 -7.77,9.36 -0.3,0 -0.5,-0.2 -0.5,-0.5 0,-0.15 0,-0.25 0.94,-1.15 4.89,-4.92 7.73,-12.85 7.73,-23.26 0,-8.52 -1.85,-17.28 -8.02,-23.56 -0.65,-0.6 -0.65,-0.69 -0.65,-0.85 0,-0.29 0.2,-0.49 0.5,-0.49 0.5,0 4.98,3.38 7.92,9.71 2.54,5.48 3.14,11.01 3.14,15.19 z"
           inkscape:connector-curvature="0"
           style="fill:#000000;stroke-width:0" /><path
           id="path5596"
           d="m 841.22,422.29 0.14,0 0.15,0 0.15,0.01 0.07,0 0.07,0 0.07,0.01 0.08,0.01 0.07,0.01 0.07,0.01 0.06,0.02 0.07,0.01 0.07,0.02 0.06,0.02 0.06,0.03 0.06,0.03 0.05,0.03 0.06,0.03 0.05,0.04 0.04,0.04 0.05,0.05 0.03,0.05 0.02,0.03 0.02,0.02 0.02,0.03 0.01,0.03 0.02,0.03 0.01,0.04 0.01,0.03 0.01,0.04 0.01,0.03 0.01,0.04 0.01,0.04 0,0.04 0.01,0.04 0,0.04 0,0.05 0,0.05 c 0,0.99 -0.94,0.99 -1.64,0.99 l -29.84,0 c -0.7,0 -1.64,0 -1.64,-0.99 0,-1 0.94,-1 1.69,-1 z"
           inkscape:connector-curvature="0"
           style="fill:#000000;stroke-width:0" /><path
           id="path5598"
           d="m 841.27,412.62 0.13,0.01 0.14,0 0.14,0 0.07,0.01 0.07,0 0.07,0.01 0.07,0.01 0.07,0.01 0.07,0.01 0.06,0.01 0.07,0.02 0.06,0.02 0.06,0.02 0.06,0.02 0.06,0.03 0.06,0.03 0.05,0.04 0.05,0.04 0.04,0.04 0.05,0.04 0.02,0.03 0.02,0.03 0.01,0.02 0.02,0.03 0.02,0.03 0.01,0.03 0.02,0.03 0.01,0.03 0.01,0.04 0.01,0.03 0.01,0.04 0.01,0.04 0.01,0.04 0,0.04 0.01,0.04 0,0.04 0,0.05 0,0.04 c 0,1 -0.94,1 -1.69,1 l -29.74,0 c -0.75,0 -1.69,0 -1.69,-1 0,-1 0.94,-1 1.64,-1 z"
           inkscape:connector-curvature="0"
           style="fill:#000000;stroke-width:0" /><path
           id="path5600"
           d="m 878.63,409.84 0,-0.3 0.01,-0.31 0.01,-0.16 0.01,-0.16 0.02,-0.16 0.03,-0.16 0.03,-0.17 0.05,-0.16 0.05,-0.16 0.06,-0.16 0.08,-0.15 0.08,-0.16 0.1,-0.14 0.12,-0.15 0.13,-0.14 0.14,-0.14 0.16,-0.13 0.09,-0.06 0.09,-0.06 0.1,-0.06 0.1,-0.06 0.11,-0.06 0.11,-0.05 0.12,-0.05 0.12,-0.05 0.13,-0.05 0.14,-0.05 0.14,-0.04 0.14,-0.04 0.15,-0.04 0.16,-0.04 0.16,-0.03 0.17,-0.03 0.18,-0.03 0.18,-0.03 0.19,-0.02 0.2,-0.02 0.2,-0.02 0.21,-0.01 0.22,-0.02 0.22,0 0.23,-0.01 0.24,0 2.39,0 c 1,0 1.6,0 1.6,1.2 0,1.14 -0.65,1.14 -1.3,1.14 -3.04,0.05 -3.04,0.7 -3.04,1.84 l 0,10.71 c 0,4.44 -3.53,7.68 -10.96,7.68 -2.84,0 -8.91,-0.2 -8.91,-4.59 0,-2.19 1.74,-3.14 3.09,-3.14 1.54,0 3.13,1.05 3.13,3.14 0,1.5 -0.94,2.34 -1.09,2.44 1.39,0.3 2.99,0.35 3.58,0.35 3.74,0 5.48,-2.09 5.48,-5.88 l 0,-1.69 0,-1.54 0,-4.73 c 0,-4.79 -4.58,-5.43 -5.82,-5.43 -2.55,0 -4.54,1.74 -4.54,3.93 0,5.38 7.87,6.08 10.36,6.23 l 0,0 0,1.54 c -3.53,-0.15 -16.19,-0.6 -16.19,-7.82 0,-4.78 6.18,-5.68 9.62,-5.68 3.98,0 6.32,2.04 7.42,4.14 z"
           inkscape:connector-curvature="0"
           style="fill:#000000;stroke-width:0" /><path
           id="path5602"
           d="m 908.56,418.45 0,0.14 -0.01,0.13 -0.02,0.13 -0.02,0.13 -0.03,0.13 -0.04,0.12 -0.04,0.13 -0.05,0.12 -0.05,0.11 -0.06,0.12 -0.06,0.11 -0.07,0.1 -0.08,0.11 -0.07,0.1 -0.09,0.09 -0.09,0.1 -0.09,0.08 -0.09,0.09 -0.1,0.08 -0.11,0.07 -0.1,0.07 -0.11,0.06 -0.12,0.06 -0.11,0.05 -0.12,0.05 -0.13,0.04 -0.12,0.04 -0.13,0.03 -0.13,0.02 -0.13,0.02 -0.13,0.01 -0.13,0 c -1.45,0 -2.65,-1.19 -2.65,-2.64 0,-1.44 1.2,-2.64 2.65,-2.64 1.44,0 2.63,1.2 2.63,2.64 z"
           inkscape:connector-curvature="0"
           style="fill:#000000;stroke-width:0" /><path
           id="path5604"
           d="m 934.66,425.98 0,14.59 -8.82,-0.4 0,-2.34 c 3.09,0 3.44,0 3.44,-1.94 l 0,-29.89 2.34,0 2.44,2.79 c 0.4,-0.4 2.84,-3.09 7.28,-3.09 l -0.45,1.8 c -3.49,0 -5.43,2.68 -5.93,3.43 l 0,0 0,12.5 c 1.34,1.75 3.74,3.19 6.47,3.19 6.08,0 6.08,-6.03 6.08,-9.51 0,-2.34 0,-5.08 -1.29,-7.02 -1.45,-2.05 -3.74,-2.59 -5.33,-2.59 l 0.45,-1.8 c 7.42,0 12.55,4.48 12.55,11.41 0,6.62 -4.68,11.3 -11.91,11.3 -3.63,0 -6.13,-1.44 -7.32,-2.43 z"
           inkscape:connector-curvature="0"
           style="fill:#000000;stroke-width:0" /><path
           id="path5606"
           d="m 977.87,441.47 0.01,0.03 0.01,0.03 0.01,0.03 0.01,0.02 0.01,0.03 0.01,0.03 0.02,0.05 0.02,0.05 0.01,0.05 0.02,0.04 0.01,0.04 0.01,0.04 0.02,0.04 0.01,0.04 0.01,0.03 0,0.03 0.01,0.03 0.01,0.03 0.01,0.03 0,0.02 0.01,0.03 0,0.02 0,0.02 0.01,0.02 0,0.01 0,0.02 0,0.01 0,0.02 0.01,0.01 0,0.01 0,0.01 0,0 0,0.01 0,0.01 0,0 c 0,0.55 -0.45,1 -1,1 -0.35,0 -0.7,-0.15 -0.85,-0.45 l -17.28,-47.47 c -0.25,-0.65 -0.25,-0.85 -0.25,-0.9 0,-0.54 0.45,-0.99 0.99,-0.99 0.65,0 0.8,0.34 1.1,1.19 z"
           inkscape:connector-curvature="0"
           style="fill:#000000;stroke-width:0" /><path
           id="path5608"
           d="m 988.57,441.67 0,0.15 -0.01,0.15 0,0.15 0,0.07 -0.01,0.08 -0.01,0.07 0,0.07 -0.01,0.07 -0.02,0.07 -0.01,0.07 -0.02,0.07 -0.02,0.06 -0.02,0.06 -0.02,0.06 -0.03,0.06 -0.03,0.05 -0.04,0.05 -0.04,0.05 -0.04,0.05 -0.04,0.04 -0.05,0.04 -0.03,0.01 -0.03,0.02 -0.03,0.02 -0.03,0.01 -0.03,0.01 -0.03,0.02 -0.04,0.01 -0.03,0.01 -0.04,0.01 -0.04,0.01 -0.03,0 -0.04,0.01 -0.05,0 -0.04,0.01 -0.04,0 -0.05,0 c -1,0 -1,-1.09 -1,-1.84 l 0,-46.13 c 0,-0.8 0,-1.84 1,-1.84 1,0 1,0.9 1,1.69 z"
           inkscape:connector-curvature="0"
           style="fill:#000000;stroke-width:0" /><path
           id="path5610"
           d="m 998.28,441.52 0,0.15 0,0.15 -0.01,0.16 0,0.16 -0.01,0.08 -0.01,0.08 -0.01,0.07 -0.01,0.08 -0.02,0.07 -0.01,0.08 -0.02,0.07 -0.02,0.07 -0.03,0.06 -0.03,0.07 -0.03,0.06 -0.03,0.06 -0.04,0.05 -0.04,0.05 -0.05,0.05 -0.05,0.04 -0.03,0.02 -0.02,0.02 -0.03,0.02 -0.03,0.02 -0.03,0.01 -0.04,0.02 -0.03,0.01 -0.04,0.01 -0.03,0.01 -0.04,0.01 -0.04,0.01 -0.04,0.01 -0.04,0 -0.04,0.01 -0.05,0 -0.05,0 c -0.99,0 -0.99,-0.9 -0.99,-1.69 l 0,-46.43 c 0,-0.79 0,-1.69 0.99,-1.69 1,0 1,1.09 1,1.84 z"
           inkscape:connector-curvature="0"
           style="fill:#000000;stroke-width:0" /><path
           id="path5612"
           d="m 1015.7,425.98 0,14.59 -8.9,-0.4 0,-2.34 c 3.1,0 3.5,0 3.5,-1.94 l 0,-29.89 2.3,0 2.5,2.79 c 0.4,-0.4 2.8,-3.09 7.2,-3.09 l -0.4,1.8 c -3.5,0 -5.4,2.68 -5.9,3.43 l 0,0 0,12.5 c 1.3,1.75 3.7,3.19 6.4,3.19 6.1,0 6.1,-6.03 6.1,-9.51 0,-2.34 0,-5.08 -1.3,-7.02 -1.4,-2.05 -3.7,-2.59 -5.3,-2.59 l 0.4,-1.8 c 7.5,0 12.6,4.48 12.6,11.41 0,6.62 -4.7,11.3 -11.9,11.3 -3.7,0 -6.1,-1.44 -7.3,-2.43 z"
           inkscape:connector-curvature="0"
           style="fill:#000000;stroke-width:0" /><path
           id="path5614"
           d="m 1045.6,441.67 0,0.15 0,0.15 0,0.15 0,0.07 0,0.08 -0.1,0.07 0,0.07 0,0.07 0,0.07 0,0.07 0,0.07 0,0.06 -0.1,0.06 0,0.06 0,0.06 0,0.05 -0.1,0.05 0,0.05 -0.1,0.05 0,0.04 -0.1,0.04 0,0.01 0,0.02 0,0.02 -0.1,0.01 0,0.01 0,0.02 -0.1,0.01 0,0.01 0,0.01 -0.1,0.01 0,0 -0.1,0.01 0,0 0,0.01 -0.1,0 0,0 c -1,0 -1,-1.09 -1,-1.84 l 0,-46.13 c 0,-0.8 0,-1.84 1,-1.84 1,0 1,0.9 1,1.69 z"
           inkscape:connector-curvature="0"
           style="fill:#000000;stroke-width:0" /><path
           id="path5616"
           d="m 1055.3,441.52 0,0.15 0,0.15 0,0.16 0,0.16 0,0.08 -0.1,0.08 0,0.07 0,0.08 0,0.07 0,0.08 0,0.07 0,0.07 -0.1,0.06 0,0.07 0,0.06 -0.1,0.06 0,0.05 0,0.05 -0.1,0.05 0,0.04 -0.1,0.02 0,0.02 0,0.02 -0.1,0.02 0,0.01 0,0.02 0,0.01 -0.1,0.01 0,0.01 -0.1,0.01 0,0.01 0,0.01 -0.1,0 0,0.01 -0.1,0 0,0 c -1,0 -1,-0.9 -1,-1.69 l 0,-46.43 c 0,-0.79 0,-1.69 1,-1.69 1,0 1,1.09 1,1.84 z"
           inkscape:connector-curvature="0"
           style="fill:#000000;stroke-width:0" /></g>    </g>
  </g>
  <path
     style="fill:none;stroke:#000000;stroke-width:0.69196922px;stroke-linecap:butt;stroke-linejoin:miter;stroke-opacity:1"
     d="m 145.2703,126.77131 -28.56385,6.19554 6.276,26.95461"
     id="path3022"
     inkscape:connector-curvature="0" />
</svg>
